<svg xmlns="http://www.w3.org/2000/svg" width="794" height="636" viewBox="0 0 794 636">
  <g id="undraw_google_docs_jf93" transform="translate(-94 -17.5)">
    <rect id="Rectangle_69" data-name="Rectangle 69" width="418" height="537.564" transform="translate(258 17.5)" fill="#e6e8ec"/>
    <rect id="Rectangle_70" data-name="Rectangle 70" width="213.403" height="2.398" transform="translate(354.091 117.809)" fill="#3f3d56"/>
    <rect id="Rectangle_71" data-name="Rectangle 71" width="213.403" height="2.398" transform="translate(354.091 134.593)" fill="#3f3d56"/>
    <rect id="Rectangle_72" data-name="Rectangle 72" width="213.403" height="2.398" transform="translate(354.091 151.378)" fill="#3f3d56"/>
    <path id="Path_119" data-name="Path 119" d="M213.4,2.4h0Z" transform="translate(354.091 242.809)" fill="#5bb9fd"/>
    <rect id="Rectangle_75" data-name="Rectangle 75" width="213.403" height="2.398" transform="translate(354.091 276.378)" fill="#3f3d56"/>
    <rect id="Rectangle_76" data-name="Rectangle 76" width="213.403" height="2.398" transform="translate(354.091 318.809)" fill="#3f3d56"/>
    <rect id="Rectangle_77" data-name="Rectangle 77" width="213.403" height="2.398" transform="translate(354.091 335.593)" fill="#3f3d56"/>
    <rect id="Rectangle_78" data-name="Rectangle 78" width="213.403" height="2.398" transform="translate(354.091 352.378)" fill="#3f3d56"/>
    <rect id="Rectangle_79" data-name="Rectangle 79" width="213.403" height="2.398" transform="translate(354.091 394.809)" fill="#3f3d56"/>
    <rect id="Rectangle_81" data-name="Rectangle 81" width="213.403" height="2.398" transform="translate(354.091 411.378)" fill="#3f3d56"/>
    <rect id="Rectangle_82" data-name="Rectangle 82" width="213.403" height="2.398" transform="translate(354.091 470.809)" fill="#3f3d56"/>
    <rect id="Rectangle_83" data-name="Rectangle 83" width="213.403" height="2.398" transform="translate(354.091 487.593)" fill="#3f3d56"/>
    <rect id="Rectangle_84" data-name="Rectangle 84" width="213.403" height="2.398" transform="translate(354.091 504.378)" fill="#3f3d56"/>
    <path id="Path_89" data-name="Path 89" d="M495,273.25a108.061,108.061,0,0,1-56.889,95.159c-1.311.711-2.621,1.381-3.951,2.021a108.165,108.165,0,0,1-94.66-.17q-3.81-1.86-7.44-4.02c-2.46-1.44-4.85-2.99-7.17-4.63a108.018,108.018,0,0,1,13.37-184.75,106.2,106.2,0,0,1,20.6-7.9q4.71-1.275,9.58-2.12A108.115,108.115,0,0,1,387,165.25c1.28,0,2.55.02,3.82.08q1.395.03,2.79.12a107.409,107.409,0,0,1,28.53,5.65c.79.27,1.58.55,2.36.84q4.08,1.5,7.98,3.34A107.977,107.977,0,0,1,495,273.25Z" transform="translate(-156 -112.75)" fill="#3f3d56"/>
    <path id="Path_90" data-name="Path 90" d="M429.154,162.81c-9.826-23.184-34.838-27.563-34.838-27.563s-24.083-6.425-44.2,24.173c-18.747,28.52-42.922,55.241-12.263,66.624l8.1-17.008.972,19.574a124.819,124.819,0,0,0,13.5,2.048c34.006,3.455,66.063,9.2,66.656-3.091C427.87,211.231,438.609,185.118,429.154,162.81Z" transform="translate(-156 -112.75)" fill="#2f2e41"/>
    <path id="Path_91" data-name="Path 91" d="M341.82,351.76l-.8,6.42-1.52,12.08q-3.81-1.86-7.44-4.02c-2.46-1.44-4.85-2.99-7.17-4.63l.24-6.23.27-6.91,11.1,2.23Z" transform="translate(-156 -112.75)" fill="#ffb8b8"/>
    <path id="Path_92" data-name="Path 92" d="M453.55,358.32a108.094,108.094,0,0,1-15.46,10.1l-5.24-18.15-.69-2.39-1.72-5.97,1.85-.29,18.94-2.99.61,5.15Z" transform="translate(-156 -112.75)" fill="#ffb8b8"/>
    <circle id="Ellipse_6" data-name="Ellipse 6" cx="29.541" cy="29.541" r="29.541" transform="translate(208.792 38.785)" fill="#ffb8b8"/>
    <path id="Path_93" data-name="Path 93" d="M374.092,192.564s2.188,37.2-4.376,39.388,33.917,0,33.917,0-5.47-22.976,0-29.541S374.092,192.564,374.092,192.564Z" transform="translate(-156 -112.75)" fill="#ffb8b8"/>
    <path id="Path_94" data-name="Path 94" d="M404.18,225.934s-28.447-2.188-33.917,0-20.788,13.129-20.788,13.129l7.659,68.928L419.5,321.121l9.847-14.223,9.847-20.788-4.376-26.258-1.094-15.317Z" transform="translate(-156 -112.75)" fill="#fe6b39"/>
    <path id="Path_95" data-name="Path 95" d="M344,243.44s-14.223,3.282-15.317,14.223-1.094,38.293,0,42.67,0,6.565-1.094,7.659-3.282-1.094-1.094,2.188,2.188,3.282,1.094,6.565-4.376-1.094-2.188,4.376,3.282,6.565,2.188,7.659-4.376,26.258-4.376,26.258l18.6,3.282,18.6-64.552Z" transform="translate(-156 -112.75)" fill="#fe6b39"/>
    <path id="Path_96" data-name="Path 96" d="M429.344,243.44A11.66,11.66,0,0,1,439.191,250c3.282,6.565,12.035,49.234,10.941,52.517s-3.282-1.094-1.094,5.47,0,5.47,1.094,9.847-4.376,0,0,4.376,6.565,5.47,4.376,7.659-5.471-2.188-2.188,2.188S455.6,343,455.6,343l-26.258,5.47-7.659-61.27Z" transform="translate(-156 -112.75)" fill="#fe6b39"/>
    <path id="Path_97" data-name="Path 97" d="M432.85,350.27l1.31,20.16a108.165,108.165,0,0,1-94.66-.17q-3.81-1.86-7.44-4.02c.84-3.09,1.69-6.17,2.56-9.19q.93-3.225,1.88-6.35c4.91-16.07,10.2-29.74,15.16-35.05,0,0,0-12.03,2.19-13.13a7.228,7.228,0,0,0,2.32-3.18,42.662,42.662,0,0,0,2.06-5.57l-3.62-8.42-16.2-37.72a4.609,4.609,0,0,1,2.17-5.93l5.37-2.69a4.611,4.611,0,0,1,6.19,2.1l24.69,50.47,27.35,17.51,19.18-8.53.51-.23s14.23-21.88,9.85-32.82c-1.87-4.67-3.93-10.91-5.7-16.54-1.03-3.32-1.95-6.43-2.67-8.87a1.968,1.968,0,0,1,2.98-2.19l3.73,2.49a5.425,5.425,0,0,1,1.93,2.29,4.931,4.931,0,0,1,.38,1.14l8.1,39.19-10.94,22.97v21.88l.76,11.75.4,6.15Z" transform="translate(-156 -112.75)" fill="#5bb9fd"/>
    <path id="Path_98" data-name="Path 98" d="M267.6,41.637l-25.067-13.13-34.616,5.371L200.754,65.51l17.828-.685L223.563,53.2v11.43l8.226-.316,4.775-18.5,2.984,19.7,29.245-.6Z" fill="#2f2e41"/>
    <ellipse id="Ellipse_7" data-name="Ellipse 7" cx="3.282" cy="5.744" rx="3.282" ry="5.744" transform="translate(204.963 62.582)" fill="#ffb8b8"/>
    <path id="Path_99" data-name="Path 99" d="M1018.59,452.313c0,47.933-32.379,88.5-77,102.075a109.736,109.736,0,0,1-20.2,4.159,112.585,112.585,0,0,1-12.6.7c-1.566,0-3.121-.03-4.666-.109h-.025a111.252,111.252,0,0,1-45.157-11.525,109.985,109.985,0,0,1-26.96-18.892A105.225,105.225,0,0,1,799,452.313c0-45.319,28.942-84.054,69.81-99.619a109.237,109.237,0,0,1,15.015-4.535,113.145,113.145,0,0,1,56.919,1.832c1.4.4,2.8.842,4.168,1.317.01,0,.02.01.031.01a103.734,103.734,0,0,1,9.719,3.822c1.088.475,2.176.98,3.243,1.515q3.2,1.545,6.282,3.317c.793.446,1.576.9,2.348,1.376a109.071,109.071,0,0,1,32.175,29.586,105.024,105.024,0,0,1,16.774,36.081,103.914,103.914,0,0,1,3.105,25.3Z" transform="translate(-156 -112.75)" fill="#3f3d56"/>
    <path id="Path_100" data-name="Path 100" d="M1027.25,278.834l15.03-4.564,1.3-12.893s-36.556-13.45-48.243,10.34c-4.127,8.4-9.327,13.445-14.33,16.456a27.042,27.042,0,0,1-22.991,1.929c-25.335-9.012-31.3,16.616-31.3,16.616s2.19,3.648,17.807,4.545c7.772.446,14.132,6.143,18.56,11.754,9.482,12.014,28.958,8.542,33.741-5.878q.116-.349.228-.706c7.471-23.836,41.482-4.858,41.482-4.858l2.171-21.59Z" transform="translate(-156 -112.75)" fill="#2f2e41"/>
    <ellipse id="Ellipse_8" data-name="Ellipse 8" cx="18.409" cy="17.93" rx="18.409" ry="17.93" transform="translate(750.434 188.571)" fill="#2f2e41"/>
    <ellipse id="Ellipse_9" data-name="Ellipse 9" cx="49.09" cy="47.813" rx="49.09" ry="47.813" transform="translate(710.549 206.501)" fill="#2f2e41"/>
    <ellipse id="Ellipse_10" data-name="Ellipse 10" cx="33.749" cy="32.871" rx="33.749" ry="32.871" transform="translate(724.356 238.875)" fill="#a0616a"/>
    <path id="Path_101" data-name="Path 101" d="M900.81,409.4l6.136,31.875,30.681-3.984s-5.114-24.9-2.045-31.875Z" transform="translate(-156 -112.75)" fill="#a0616a"/>
    <path id="Path_102" data-name="Path 102" d="M961.149,339.671s-24.545-17.93-34.772-10.957,27.613,29.883,31.7,27.891S961.149,339.671,961.149,339.671Z" transform="translate(-156 -112.75)" fill="#a0616a"/>
    <path id="Path_103" data-name="Path 103" d="M984.671,475.137a4.113,4.113,0,0,1-.02.5v.01c-.63,14.238-27.54,57.815-43.063,78.747a109.729,109.729,0,0,1-20.2,4.159,112.6,112.6,0,0,1-12.6.7c-1.566,0-3.121-.03-4.666-.109h-.02c-14.293-4.5-31.271-10.4-43.653-15.05-5.835-2.208-10.654-4.129-13.683-5.5a19.607,19.607,0,0,1-3.233-1.693c-5.114-3.99,6.14-6.981,11.254-7.971s-2.043-11.951-2.043-11.951c-18.411-18.932,4.087-34.863,4.087-34.863s9.2-18.932,9.2-23.912a1.8,1.8,0,0,1,.4-1.01c3.853-5.307,34.381-14.922,34.381-14.922V426.332l3.162-.515,31.108-5.05,2.542-.416,5.114,7.971,22.508,2.99S984.671,457.215,984.671,475.137Z" transform="translate(-156 -112.75)" fill="#5bb9fd"/>
    <path id="Path_104" data-name="Path 104" d="M887.515,475.137s-13.48,36.4-25.791,65.895c-.427,1.03-.854,2.05-1.271,3.06-.508,1.188-1.006,2.366-1.5,3.525a109.985,109.985,0,0,1-26.96-18.892c5.53-17.516,14.3-45.349,17.689-56.568,3.731-12.367,12.362-14.634,16.754-14.961a13.44,13.44,0,0,1,2.673.02Z" transform="translate(-156 -112.75)" fill="#5bb9fd"/>
    <path id="Path_105" data-name="Path 105" d="M962.172,434.3l3.068-2.988s38.863-40.84,37.84-50.8c0,0-20.454-24.9-46.022-17.93,0,0-11.25-26.895,6.136-25.9s81.816-2.988,80.794,25.9S981.6,480.122,981.6,480.122Z" transform="translate(-156 -112.75)" fill="#5bb9fd"/>
    <path id="Path_106" data-name="Path 106" d="M921.388,558.547a112.6,112.6,0,0,1-12.6.7c-1.566,0-3.121-.03-4.666-.109h-.02a111.253,111.253,0,0,1-45.157-11.525,109.609,109.609,0,0,1-12.921-7.555l.742-1.465v-.01l.864-1.683,14.09,4.129Z" transform="translate(-156 -112.75)" fill="#2f2e41"/>
    <ellipse id="Ellipse_11" data-name="Ellipse 11" cx="20.972" cy="33.662" rx="20.972" ry="33.662" transform="matrix(0.305, -0.952, 0.952, 0.305, 721.188, 256.055)" fill="#2f2e41"/>
    <path id="Path_107" data-name="Path 107" d="M156,679.25a109.211,109.211,0,0,0,1.26,16.58,108.123,108.123,0,0,0,37.5,66.31c.55.46,1.11.92,1.68,1.37q1.77,1.425,3.6,2.77,2.64,1.95,5.4,3.73a108.174,108.174,0,0,0,98.47,9.62c.76-.3,1.52-.61,2.27-.93,1.2-.51,2.38-1.04,3.56-1.6q4.485-2.085,8.75-4.59,4.395-2.565,8.5-5.52c1.25-.9,2.46-1.81,3.67-2.76l.02-.01a108.291,108.291,0,0,0,35.02-48.53v-.01a108.144,108.144,0,0,0-43.52-127.44c-.95-.6-1.91-1.2-2.88-1.76-1-.62-2.02-1.2-3.05-1.76a107.09,107.09,0,0,0-45.08-13.23q-3.555-.24-7.17-.24c-.12,0-.24,0-.36.01q-4.86,0-9.6.45A108,108,0,0,0,156,679.25Z" transform="translate(-62 -133.75)" fill="#3f3d56"/>
    <path id="Path_108" data-name="Path 108" d="M375.312,716.339s31.543-32.594,39.954-12.617-31.543,30.491-31.543,30.491Z" transform="translate(-62 -133.75)" fill="#ffb8b8"/>
    <path id="Path_109" data-name="Path 109" d="M196.44,763.51q1.77,1.425,3.6,2.77,2.64,1.95,5.4,3.73a108.174,108.174,0,0,0,98.47,9.62c.76-.3,1.52-.61,2.27-.93,1.2-.51,2.38-1.04,3.56-1.6l-2.77-3.98a30.994,30.994,0,0,0-6.69-4.77c-18.95-10.29-54.64-9.97-78.79-8.28-3.44.24-6.64.51-9.52.78-1.8.16-3.48.33-5.01.49-.62.07-1.21.13-1.77.19-5.39.6-8.62,1.07-8.62,1.07Z" transform="translate(-62 -133.75)" fill="#2f2e41"/>
    <circle id="Ellipse_12" data-name="Ellipse 12" cx="30.215" cy="30.215" r="30.215" transform="translate(196.905 423.537)" fill="#ffb8b8"/>
    <path id="Path_110" data-name="Path 110" d="M269.118,597.529l-22.08,23.131-6.309,35.748,55.725,9.463-4.206-32.594s1.051-15.771,5.257-18.925S269.118,597.529,269.118,597.529Z" transform="translate(-62 -133.75)" fill="#ffb8b8"/>
    <path id="Path_111" data-name="Path 111" d="M329.049,662.716" transform="translate(-156 -112.75)" fill="none" stroke="lime" stroke-miterlimit="10" stroke-width="1"/>
    <path id="Path_112" data-name="Path 112" d="M203.93,765.76a56.693,56.693,0,0,1,5.61-1.49,83.962,83.962,0,0,1,14.49-1.85,70.7,70.7,0,0,1,33.52,6.49c15.32,7.35,33.5,9.35,46,9.73.91.03,1.79.05,2.63.06,1.2-.51,2.38-1.04,3.56-1.6q4.485-2.085,8.75-4.59l-.04-3.7-.66-73.2v-.01l-.31-34.99-19.97-23.13-5.13-5.78-2.44,2.19-14.51,13.06-21.15-19.59-7.24-6.7L212.31,737.57l-4.48,15.08-2.64,8.88-.41,1.36v.01Z" transform="translate(-62 -133.75)" fill="#fe6b39"/>
    <path id="Path_113" data-name="Path 113" d="M284.62,663.86a105.865,105.865,0,0,0,1.32,15.68c3.6,22.99,6.69,61.21,14.34,88.81,1,3.64,2.09,7.08,3.27,10.29l.36.99c.76-.3,1.52-.61,2.27-.93,1.2-.51,2.38-1.04,3.56-1.6q4.485-2.085,8.75-4.59,4.395-2.565,8.5-5.52l-.32-1.26v-.01l-4.98-19.94s3.2-16.69,5.76-35.36v-.01c2.94-21.37,5.04-45.31.55-49.8l-35.23-32.23-.01.01a35.613,35.613,0,0,0-2.82,5.5C287.54,639.58,284.5,649.62,284.62,663.86Z" transform="translate(-62 -133.75)" fill="#5bb9fd"/>
    <path id="Path_114" data-name="Path 114" d="M175.01,740.45a108.019,108.019,0,0,0,19.75,21.69c.55.46,1.11.92,1.68,1.37q1.77,1.425,3.6,2.77,2.64,1.95,5.4,3.73c1.36-1.89,2.73-3.81,4.1-5.74q1.215-1.695,2.43-3.42c1.28-1.82,2.56-3.65,3.82-5.49.16-.22.31-.44.46-.66,1.6-2.31,3.18-4.63,4.72-6.94,11.36-16.97,20.78-33.26,21.86-42.99,1.3-11.65,3.93-29.67,6.6-46.88,1.72-11.18,3.46-22.02,4.85-30.53,1.68-10.34,2.84-17.26,2.84-17.26s-55.1-5.51-62.82-.1h-.01a1.808,1.808,0,0,0-.87,1.2c-.84,5.86,3.66,60.32,5.52,82.32v.01c.48,5.64.79,9.14.79,9.14s-3.15,4.21-7.77,10.96C187.25,720.52,181,730.05,175.01,740.45Z" transform="translate(-62 -133.75)" fill="#5bb9fd"/>
    <path id="Path_115" data-name="Path 115" d="M324.844,690.053l5.257,41.005,46.262-19.977,14.72,30.491-75.7,28.388S301.712,697.413,324.844,690.053Z" transform="translate(-62 -133.75)" fill="#5bb9fd"/>
    <path id="Path_116" data-name="Path 116" d="M319.307,593.031s4.106-4.434,3.69-9.984a31.648,31.648,0,0,1,.6-9.436s-1.285-9.085-3.183-14.351-.3-7.1-8.454-9.973S309,536.016,284.947,544.3a6.579,6.579,0,0,1-7.155,1.464c-4.44-1.626-7.115,4.473-7.115,4.473s-2.769-2.272-4.323.09-9.07-3.022-11.825,14.163S261.233,597,261.233,597s1.328-27.5,16.945-28,33.28-6.414,35.47,5.166A84.522,84.522,0,0,0,319.307,593.031Z" transform="translate(-62 -133.75)" fill="#2f2e41"/>
    <path id="Path_117" data-name="Path 117" d="M194.76,762.14c.55.46,1.11.92,1.68,1.37q1.77,1.425,3.6,2.77,2.64,1.95,5.4,3.73a107.289,107.289,0,0,0,28.66,13.04c2.48-6.36-3.46-14.27-10.07-20.63-.84-.81-1.7-1.6-2.54-2.35-2-1.77-3.97-3.37-5.7-4.71-.08-.06-.15-.11-.22-.17-3.27-2.52-5.64-4.07-5.64-4.07l-2.1,1.53Z" transform="translate(-62 -133.75)" fill="#ffb8b8"/>
    <path id="Path_118" data-name="Path 118" d="M157.26,695.83a108.123,108.123,0,0,0,37.5,66.31c.55.46,1.11.92,1.68,1.37q1.77,1.425,3.6,2.77l4.74-3.38v-.01l2.18-1.55,8.61-6.15.68-.49,6.61-4.72-1.89-2.22-8.66-10.19-20.35-23.94-4.85-5.7,11.83-14.4v-.01l12.35-15.03L200.78,611.2a11.179,11.179,0,0,0-6.48-1.2h-.01c-2.38.41-4.81,2.05-6.13,6.45C185.77,624.42,166.47,672.85,157.26,695.83Z" transform="translate(-62 -133.75)" fill="#5bb9fd"/>
  </g>
</svg>
