<svg xmlns="http://www.w3.org/2000/svg" xmlns:xlink="http://www.w3.org/1999/xlink" width="249.004" height="280.862" viewBox="0 0 249.004 280.862">
  <defs>
    <linearGradient id="linear-gradient" x1="0.5" y1="1" x2="0.5" gradientUnits="objectBoundingBox">
      <stop offset="0" stop-color="gray" stop-opacity="0.251"/>
      <stop offset="0.54" stop-color="gray" stop-opacity="0.122"/>
      <stop offset="1" stop-color="gray" stop-opacity="0.102"/>
    </linearGradient>
    <clipPath id="clip-path">
      <rect id="_Rectangle_" data-name="&lt;Rectangle&gt;" width="36.836" height="24.831" fill="#fff"/>
    </clipPath>
    <linearGradient id="linear-gradient-6" x1="0.518" y1="1.092" x2="0.518" y2="-0.251" xlink:href="#linear-gradient"/>
    <linearGradient id="linear-gradient-7" x1="0.6" y1="0.66" x2="0.6" y2="0.086" xlink:href="#linear-gradient"/>
    <linearGradient id="linear-gradient-8" x1="0.5" y1="0.999" x2="0.5" gradientUnits="objectBoundingBox">
      <stop offset="0" stop-opacity="0.122"/>
      <stop offset="0.55" stop-opacity="0.09"/>
      <stop offset="1" stop-opacity="0.02"/>
    </linearGradient>
    <linearGradient id="linear-gradient-9" x1="0.5" y1="1" x2="0.5" y2="0" xlink:href="#linear-gradient-8"/>
    <clipPath id="clip-path-3">
      <rect id="_Rectangle_3" data-name="&lt;Rectangle&gt;" width="18.584" height="12.528" fill="#fff"/>
    </clipPath>
  </defs>
  <g id="Phone1" transform="translate(-2.149 -59.334)">
    <g id="g1078" transform="translate(77.634 59.334)">
      <g id="g958" transform="translate(10.47 15.855)" opacity="0.5">
        <rect id="rect956" width="114.88" height="154.372" fill="url(#linear-gradient)"/>
      </g>
      <rect id="rect960" width="111.291" height="148.987" transform="translate(11.966 17.95)" fill="#f2f2f2"/>
      <rect id="rect962" width="38.293" height="1.196" transform="translate(20.643 24.232)" fill="#e0e0e0"/>
      <rect id="rect964" width="38.293" height="1.196" transform="translate(20.643 29.617)" fill="#5bb9fd" opacity="0.7"/>
      <rect id="rect966" width="38.293" height="1.196" transform="translate(64.621 24.232)" fill="#e0e0e0"/>
      <rect id="rect968" width="38.293" height="1.196" transform="translate(70.602 58.339)" fill="#e0e0e0"/>
      <rect id="rect970" width="38.293" height="1.196" transform="translate(71.502 61.628)" fill="#e0e0e0"/>
      <rect id="rect972" width="38.293" height="1.196" transform="translate(73.297 64.92)" fill="#e0e0e0"/>
      <rect id="rect974" width="38.293" height="1.196" transform="translate(70.602 111.291)" fill="#e0e0e0"/>
      <rect id="rect976" width="38.293" height="1.196" transform="translate(71.502 114.583)" fill="#e0e0e0"/>
      <rect id="rect978" width="38.293" height="1.196" transform="translate(73.297 117.872)" fill="#e0e0e0"/>
      <g id="g982" transform="translate(20.942 46.071)" opacity="0.5">
        <rect id="rect980" width="40.686" height="41.285" fill="url(#linear-gradient)"/>
      </g>
      <rect id="rect984" width="40.046" height="39.49" transform="translate(21.199 46.97)" fill="#f5f5f5"/>
      <g id="g988" transform="translate(22.61 49.363)" opacity="0.5">
        <rect id="rect986" width="37.351" height="25.728" fill="url(#linear-gradient)"/>
      </g>
      <rect id="_Rectangle_5" data-name="&lt;Rectangle&gt;" width="36.836" height="24.831" transform="translate(22.866 49.662)" fill="#fff"/>
      <g id="g996" transform="translate(22.866 49.662)" clip-path="url(#clip-path)">
        <path id="polygon992" d="M62.27,62.493l7.181,8.674L75.732,58.3,91.886,84.033l-52.355-1.8,1.2-2.99L50,64.886l3.889,6.281Z" transform="translate(-43.85 -55.313)" fill="#5bb9fd" opacity="0.4"/>
        <circle id="circle994" cx="2.692" cy="2.692" r="2.692" transform="translate(1.365 0.897)" fill="#5bb9fd" opacity="0.4"/>
      </g>
      <g id="g1001" transform="translate(20.942 99.025)" opacity="0.5">
        <rect id="rect998" width="40.686" height="41.285" fill="url(#linear-gradient)"/>
      </g>
      <rect id="rect1003" width="40.046" height="39.49" transform="translate(21.199 99.922)" fill="#f5f5f5"/>
      <g id="g1007" transform="translate(22.61 102.317)" opacity="0.5">
        <rect id="rect1005" width="37.351" height="25.728" fill="url(#linear-gradient)"/>
      </g>
      <rect id="_Rectangle_6" data-name="&lt;Rectangle&gt;" width="36.836" height="24.831" transform="translate(22.866 102.614)" fill="#fff"/>
      <g id="g1015" transform="translate(22.866 102.614)" clip-path="url(#clip-path)">
        <path id="polygon1011" d="M62.27,106.5l7.181,8.677,6.281-12.865,16.155,25.728-52.355-1.793,1.2-2.992L50,108.892l3.889,6.284Z" transform="translate(-43.85 -99.319)" fill="#bdbdbd" opacity="0.4"/>
        <circle id="circle1013" cx="2.692" cy="2.692" r="2.692" transform="translate(1.365 0.899)" fill="#bdbdbd" opacity="0.4"/>
      </g>
      <g id="g1019" transform="translate(27.336 8.227)" opacity="0.5">
        <rect id="rect1017" width="154.372" height="114.88" transform="translate(0 151.411) rotate(-78.76)" fill="url(#linear-gradient-6)"/>
      </g>
      <rect id="rect1021" width="148.988" height="111.291" transform="translate(29.444 156.703) rotate(-78.76)" fill="#fff"/>
      <rect id="rect1024" width="78.982" height="1.196" transform="translate(65.079 18.895) rotate(11.24)" fill="#e0e0e0"/>
      <rect id="rect1026" width="78.982" height="1.196" transform="translate(43.037 129.815) rotate(11.24)" fill="#e0e0e0"/>
      <rect id="rect1028" width="61.032" height="1.196" transform="translate(41.693 136.561) rotate(11.24)" fill="#e0e0e0"/>
      <rect id="rect1030" width="22.736" height="1.196" transform="translate(40.352 143.312) rotate(11.24)" fill="#5bb9fd" opacity="0.7"/>
      <rect id="rect1032" width="39.49" height="1.196" transform="translate(63.736 25.645) rotate(11.24)" fill="#5bb9fd" opacity="0.7"/>
      <rect id="rect1034" width="71.202" height="1.196" transform="translate(62.397 32.394) rotate(11.24)" fill="#e0e0e0"/>
      <rect id="rect1036" width="17.351" height="1.196" transform="translate(61.055 39.144) rotate(11.24)" fill="#3ad29f" opacity="0.7"/>
      <rect id="rect1038" width="78.982" height="1.196" transform="translate(59.715 45.893) rotate(11.24)" fill="#e0e0e0"/>
      <g id="g1042" transform="translate(58.61 74.4)" opacity="0.5">
        <rect id="rect1040" width="40.686" height="70.902" transform="translate(0 39.906) rotate(-78.76)" fill="url(#linear-gradient-7)"/>
      </g>
      <rect id="rect1044" width="70.006" height="39.789" transform="translate(66.934 74.781) rotate(11.24)" fill="#fff"/>
      <rect id="rect1046" width="78.982" height="1.196" transform="translate(58.374 52.644) rotate(11.24)" fill="#e0e0e0"/>
      <rect id="rect1048" width="8.677" height="29.02" transform="translate(73.075 81.492) rotate(11.24)" fill="#5bb9fd"/>
      <rect id="rect1050" width="8.677" height="19.446" transform="translate(86.467 93.914) rotate(11.24)" fill="#3ad29f"/>
      <rect id="rect1052" width="8.677" height="10.47" transform="translate(99.978 105.75) rotate(11.24)" fill="#f55f44"/>
      <rect id="rect1054" width="8.677" height="21.242" transform="translate(117.336 98.219) rotate(11.24)" fill="#fdd835"/>
      <path id="path1056" d="M146.348,103.81c-3.212,0-3.218,4.993,0,4.993S149.566,103.81,146.348,103.81Z" transform="translate(-45.617 -11.909)" fill="url(#linear-gradient-8)"/>
      <path id="path1058" d="M168.1,90.52a23.993,23.993,0,0,0-20.7,10.69c-1.365,2.137,2.511,4.025,3.868,1.9a19.788,19.788,0,0,1,17.164-8.684A21.867,21.867,0,0,1,186.274,104.8c1.363,2.247,4.937.2,3.586-2.029A26.6,26.6,0,0,0,168.1,90.52Z" transform="translate(-44.971 -14.612)" fill="url(#linear-gradient-9)"/>
      <path id="path1060" d="M148.952,102.548c-3.212,0-3.218,4.993,0,4.993S152.169,102.548,148.952,102.548Z" transform="translate(-45.088 -12.166)" fill="#5bb9fd"/>
      <path id="path1062" d="M170.7,89.259A23.993,23.993,0,0,0,150,99.95c-1.365,2.136,2.511,4.025,3.868,1.9a19.788,19.788,0,0,1,17.164-8.684,21.867,21.867,0,0,1,17.843,10.378c1.363,2.247,4.937.2,3.587-2.029A26.5,26.5,0,0,0,170.7,89.259Z" transform="translate(-44.442 -14.868)" fill="#5bb9fd"/>
      <rect id="rect1064" width="0.897" height="5.085" transform="translate(2.093 152.576)" fill="#47e6b1"/>
      <rect id="rect1066" width="0.897" height="5.085" transform="translate(5.085 154.669) rotate(90)" fill="#47e6b1"/>
      <path id="path1070" d="M67.992,46.255a1.1,1.1,0,0,1-.612-1.33A.527.527,0,0,0,67.4,44.8h0a.551.551,0,0,0-.991-.366h0a.527.527,0,0,0-.061.108,1.1,1.1,0,0,1-1.33.612.527.527,0,0,0-.123-.023h0a.551.551,0,0,0-.366.991h0a.528.528,0,0,0,.108.061,1.1,1.1,0,0,1,.612,1.33.527.527,0,0,0-.023.123h0A.551.551,0,0,0,66.22,48h0a.528.528,0,0,0,.061-.108,1.1,1.1,0,0,1,1.33-.612.528.528,0,0,0,.123.023h0a.551.551,0,0,0,.366-.991h0A.528.528,0,0,0,67.992,46.255Z" transform="translate(-61.803 -24.024)" fill="#fdd835"/>
      <circle id="circle1074" cx="1.796" cy="1.796" r="1.796" transform="translate(51.456 0)" fill="#f55f44"/>
      <circle id="circle1076" cx="1.796" cy="1.796" r="1.796" transform="translate(169.927 75.987)" fill="#4d8af0"/>
    </g>
    <g id="g923" transform="translate(2.149 102.955)">
      <rect id="rect835" width="0.819" height="4.423" transform="matrix(0.894, 0.448, -0.448, 0.894, 63.562, 39.654)" fill="#fff"/>
      <path id="path837" d="M96.124,178.12l-2.67-10.529a136.73,136.73,0,0,0-14.506-5.2l-.337,4.894-1.367-5.391c-6.113-1.745-10.272-2.514-10.272-2.514s5.619,21.361,17.4,37.692L98.1,199.479l-10.666,1.538a55.313,55.313,0,0,0,4.771,5.056c17.141,15.909,36.232,23.207,42.641,16.3s-2.29-25.4-19.431-41.309a72.827,72.827,0,0,0-18.671-12Z" transform="translate(-65.34 7.755)" fill="#5bb9fd"/>
      <path id="path839" d="M115.7,170.706l3.157-10.394a136.724,136.724,0,0,0-9.728-11.953l-2.818,4.015,1.616-5.322c-4.331-4.654-7.494-7.462-7.494-7.462s-6.232,21.191-4.586,41.261l10.507,9.16-9.925-4.2a55.311,55.311,0,0,0,1.471,6.794c6.45,22.478,19.02,38.594,28.076,36s11.169-22.928,4.718-45.406a72.826,72.826,0,0,0-9.778-19.927Z" transform="translate(-59.527 3.733)" fill="#e6e6e6"/>
      <path id="ellipse841" d="M112.063,0c61.891,0,112.063,2.566,112.063,5.731,0,2.3-26.517,4.285-65,5.2-14.144.337-30.167.528-47.064.528C50.173,11.461,0,8.9,0,5.731S50.173,0,112.063,0Z" transform="translate(0 225.78)" fill="#3f3d56"/>
      <path id="path843" d="M232.677,75.539H231.4V40.664a20.185,20.185,0,0,0-20.185-20.185H137.331a20.185,20.185,0,0,0-20.185,20.185V231.991a20.185,20.185,0,0,0,20.185,20.185h73.887A20.185,20.185,0,0,0,231.4,231.991V100.364h1.273Z" transform="translate(-55.141 -20.479)" fill="#1e1e1e"/>
      <path id="path845" d="M226.167,39.918V230.964a15.075,15.075,0,0,1-15.074,15.074H136.85a15.075,15.075,0,0,1-15.074-15.074V39.918A15.075,15.075,0,0,1,136.85,24.843h9.007a7.165,7.165,0,0,0,6.631,9.866h42.329a7.165,7.165,0,0,0,6.631-9.866h9.643a15.075,15.075,0,0,1,15.074,15.074Z" transform="translate(-54.2 -19.592)" fill="#fff"/>
      <rect id="rect847" width="92.279" height="139.513" transform="translate(73.632 30.53)" fill="#e6e6e6"/>
      <ellipse id="ellipse1102" cx="11.866" cy="11.866" rx="11.866" ry="11.866" transform="translate(107.713 184.671)" fill="#5bbbfd"/>
      <ellipse id="circle887" cx="9.96" cy="9.961" rx="9.96" ry="9.961" transform="translate(109.811 187.568)" fill="#5bbbfd"/>
      <ellipse id="ellipse1098" cx="10.781" cy="10.781" rx="10.781" ry="10.781" transform="translate(108.97 185.927)" fill="#f2f2f2"/>
      <ellipse id="ellipse954" cx="10.324" cy="10.324" rx="10.324" ry="10.324" transform="translate(109.398 186.384)" fill="#5bbbfd"/>
    </g>
    <g id="g1179" transform="translate(79.138 155.586)">
      <g id="g963" transform="translate(5.282 7.999)" opacity="0.5">
        <rect id="rect961" width="57.958" height="77.882" fill="url(#linear-gradient)"/>
      </g>
      <rect id="rect965" width="56.147" height="75.165" transform="translate(6.037 9.056)" fill="#f2f2f2"/>
      <rect id="rect967" width="19.319" height="0.604" transform="translate(10.414 12.225)" fill="#e0e0e0"/>
      <rect id="rect969" width="19.319" height="0.604" transform="translate(10.414 14.942)" fill="#5bb9fd" opacity="0.7"/>
      <rect id="rect971" width="19.319" height="0.604" transform="translate(32.602 12.225)" fill="#e0e0e0"/>
      <rect id="rect973" width="19.319" height="0.604" transform="translate(35.62 29.433)" fill="#e0e0e0"/>
      <rect id="rect975" width="19.319" height="0.604" transform="translate(36.073 31.092)" fill="#e0e0e0"/>
      <rect id="rect977" width="19.319" height="0.604" transform="translate(36.979 32.753)" fill="#e0e0e0"/>
      <rect id="rect979" width="19.319" height="0.604" transform="translate(35.62 56.147)" fill="#e0e0e0"/>
      <rect id="rect981" width="19.319" height="0.604" transform="translate(36.073 57.808)" fill="#e0e0e0"/>
      <rect id="rect983" width="19.319" height="0.604" transform="translate(36.979 59.468)" fill="#e0e0e0"/>
      <g id="g987" transform="translate(10.566 23.243)" opacity="0.5">
        <rect id="rect985" width="20.526" height="20.829" fill="url(#linear-gradient)"/>
      </g>
      <rect id="rect989" width="20.203" height="19.923" transform="translate(10.695 23.697)" fill="#f5f5f5"/>
      <g id="g993" transform="translate(11.407 24.904)" opacity="0.5">
        <rect id="rect991" width="18.844" height="12.98" fill="url(#linear-gradient)"/>
      </g>
      <rect id="_Rectangle_7" data-name="&lt;Rectangle&gt;" width="18.584" height="12.528" transform="translate(11.536 25.055)" fill="#fff"/>
      <g id="g1000" transform="translate(11.536 25.055)" clip-path="url(#clip-path-3)">
        <path id="polygon996" d="M31.416,31.528,35.038,35.9l3.169-6.489,8.15,12.98-26.414-.906.6-1.508,4.68-7.245L27.189,35.9Z" transform="translate(-22.123 -27.906)" fill="#5bb9fd" opacity="0.4"/>
        <circle id="circle998" cx="1.358" cy="1.358" r="1.358" transform="translate(0.689 0.452)" fill="#5bb9fd" opacity="0.4"/>
      </g>
      <g id="g1004" transform="translate(10.566 49.959)" opacity="0.5">
        <rect id="rect1002" width="20.526" height="20.829" fill="url(#linear-gradient)"/>
      </g>
      <rect id="rect1006" width="20.203" height="19.923" transform="translate(10.695 50.411)" fill="#f5f5f5"/>
      <g id="g1010" transform="translate(11.407 51.62)" opacity="0.5">
        <rect id="rect1008" width="18.844" height="12.98" fill="url(#linear-gradient)"/>
      </g>
      <rect id="_Rectangle_8" data-name="&lt;Rectangle&gt;" width="18.584" height="12.528" transform="translate(11.536 51.77)" fill="#fff"/>
      <g id="g1017" transform="translate(11.536 51.77)" clip-path="url(#clip-path-3)">
        <path id="polygon1013" d="M31.416,53.73l3.623,4.377,3.169-6.491,8.15,12.98-26.414-.9.6-1.51,4.68-7.245,1.962,3.17Z" transform="translate(-22.123 -50.107)" fill="#bdbdbd" opacity="0.4"/>
        <circle id="circle1015" cx="1.358" cy="1.358" r="1.358" transform="translate(0.689 0.454)" fill="#bdbdbd" opacity="0.4"/>
      </g>
      <g id="g1021" transform="translate(13.791 4.151)" opacity="0.5">
        <rect id="rect1019" width="77.882" height="57.958" transform="translate(0 76.388) rotate(-78.76)" fill="url(#linear-gradient-6)"/>
      </g>
      <rect id="rect1023" width="75.166" height="56.147" transform="translate(14.855 79.058) rotate(-78.76)" fill="#fff"/>
      <rect id="rect1025" width="39.847" height="0.604" transform="translate(32.833 9.533) rotate(11.24)" fill="#e0e0e0"/>
      <rect id="rect1027" width="39.847" height="0.604" transform="translate(21.712 65.493) rotate(11.24)" fill="#e0e0e0"/>
      <rect id="rect1029" width="30.791" height="0.604" transform="translate(21.034 68.896) rotate(11.24)" fill="#e0e0e0"/>
      <rect id="rect1031" width="11.47" height="0.604" transform="translate(20.358 72.302) rotate(11.24)" fill="#5bb9fd" opacity="0.7"/>
      <rect id="rect1033" width="19.923" height="0.604" transform="translate(32.155 12.938) rotate(11.24)" fill="#5bb9fd" opacity="0.7"/>
      <rect id="rect1035" width="35.922" height="0.604" transform="translate(31.48 16.343) rotate(11.24)" fill="#e0e0e0"/>
      <rect id="rect1037" width="8.754" height="0.604" transform="translate(30.803 19.748) rotate(11.24)" fill="#3ad29f" opacity="0.7"/>
      <rect id="rect1039" width="39.847" height="0.604" transform="translate(30.127 23.153) rotate(11.24)" fill="#e0e0e0"/>
      <g id="g1043" transform="translate(29.569 37.535)" opacity="0.5">
        <rect id="rect1041" width="20.526" height="35.771" transform="translate(0 20.133) rotate(-78.76)" fill="url(#linear-gradient-7)"/>
      </g>
      <rect id="rect1045" width="35.318" height="20.074" transform="translate(33.769 37.728) rotate(11.24)" fill="#fff"/>
      <rect id="rect1047" width="39.847" height="0.604" transform="translate(29.45 26.559) rotate(11.24)" fill="#e0e0e0"/>
      <rect id="rect1049" width="4.377" height="14.641" transform="translate(36.867 41.113) rotate(11.24)" fill="#5bb9fd"/>
      <rect id="rect1051" width="4.377" height="9.811" transform="translate(43.623 47.381) rotate(11.24)" fill="#3ad29f"/>
      <rect id="rect1053" width="4.377" height="5.282" transform="translate(50.44 53.352) rotate(11.24)" fill="#f55f44"/>
      <rect id="rect1055" width="4.377" height="10.717" transform="translate(59.197 49.552) rotate(11.24)" fill="#fdd835"/>
      <path id="path1059" d="M73.834,52.373a1.26,1.26,0,0,0,0,2.519A1.26,1.26,0,0,0,73.834,52.373Z" transform="translate(-23.014 -6.008)" fill="url(#linear-gradient-8)"/>
      <path id="path1061" d="M84.806,45.668a12.1,12.1,0,0,0-10.442,5.393c-.689,1.078,1.267,2.03,1.952.958a9.983,9.983,0,0,1,8.659-4.381,11.032,11.032,0,0,1,9,5.236c.688,1.133,2.491.1,1.809-1.024a13.419,13.419,0,0,0-10.981-6.182Z" transform="translate(-22.689 -7.372)" fill="url(#linear-gradient-9)"/>
      <path id="path1065" d="M75.148,51.736a1.26,1.26,0,0,0,0,2.519A1.26,1.26,0,0,0,75.148,51.736Z" transform="translate(-22.747 -6.138)" fill="#5bb9fd"/>
      <path id="path1067" d="M86.119,45.032a12.1,12.1,0,0,0-10.442,5.393c-.689,1.078,1.267,2.03,1.952.958A9.983,9.983,0,0,1,86.289,47a11.032,11.032,0,0,1,9,5.236c.688,1.133,2.491.1,1.809-1.024A13.372,13.372,0,0,0,86.119,45.032Z" transform="translate(-22.421 -7.501)" fill="#5bb9fd"/>
      <rect id="rect1069" width="0.452" height="2.565" transform="translate(1.056 76.976)" fill="#47e6b1"/>
      <rect id="rect1071" width="0.452" height="2.565" transform="translate(2.565 78.032) rotate(90)" fill="#47e6b1"/>
      <path id="path1075" d="M34.3,23.336a.554.554,0,0,1-.309-.671.266.266,0,0,0,.012-.062h0a.278.278,0,0,0-.5-.185h0a.266.266,0,0,0-.031.054.554.554,0,0,1-.671.309.266.266,0,0,0-.062-.012h0a.278.278,0,0,0-.185.5h0a.266.266,0,0,0,.054.031.554.554,0,0,1,.309.671.266.266,0,0,0-.012.062h0a.278.278,0,0,0,.5.185h0a.266.266,0,0,0,.031-.054.554.554,0,0,1,.671-.309.266.266,0,0,0,.062.012h0a.278.278,0,0,0,.185-.5h0A.266.266,0,0,0,34.3,23.336Z" transform="translate(-31.18 -12.12)" fill="#fdd835"/>
      <path id="path1077" d="M100.658,88.562a.554.554,0,0,1-.309-.671.266.266,0,0,0,.012-.062h0a.278.278,0,0,0-.5-.185h0a.265.265,0,0,0-.031.054.554.554,0,0,1-.671.309A.266.266,0,0,0,99.1,88h0a.278.278,0,0,0-.185.5h0a.267.267,0,0,0,.054.031.554.554,0,0,1,.309.671.266.266,0,0,0-.012.062h0a.278.278,0,0,0,.5.185h0a.267.267,0,0,0,.031-.054.554.554,0,0,1,.671-.309.267.267,0,0,0,.062.012h0a.278.278,0,0,0,.185-.5h0A.267.267,0,0,0,100.658,88.562Z" transform="translate(-17.692 1.139)" fill="#fdd835"/>
      <circle id="circle1079" cx="0.906" cy="0.906" r="0.906" transform="translate(25.96 0)" fill="#f55f44"/>
      <circle id="circle1083" cx="0.906" cy="0.906" r="0.906" transform="translate(85.73 38.336)" fill="#4d8af0"/>
    </g>
  </g>
</svg>
