<svg id="undraw_superhero_kguv" xmlns="http://www.w3.org/2000/svg" xmlns:xlink="http://www.w3.org/1999/xlink" width="591.892" height="493.692" viewBox="0 0 591.892 493.692">
  <defs>
    <linearGradient id="linear-gradient" x1="0.5" y1="1" x2="0.5" gradientUnits="objectBoundingBox">
      <stop offset="0" stop-color="gray" stop-opacity="0.251"/>
      <stop offset="0.54" stop-color="gray" stop-opacity="0.122"/>
      <stop offset="1" stop-color="gray" stop-opacity="0.102"/>
    </linearGradient>
    <clipPath id="clip-path">
      <path id="_Clipping_Path_" data-name="&lt;Clipping Path&gt;" d="M405.419,213.956s33.022,9.906,79.26-4.956,142.006,21.464,142.006,21.464,75.956,0,188.244-47.884c0,0-51.188,49.536-14.862,79.26s3.3,72.652-39.63,89.166S714.2,400.542,717.5,431.918s0,1.652,0,1.652-128.8-23.116-161.824,56.157l-163.47-257.6S382.3,212.311,405.419,213.956Z" transform="translate(-390.099 -182.58)" fill="#5bb9fd"/>
    </clipPath>
  </defs>
  <path id="Path_199" data-name="Path 199" d="M771.728,227.858a42.6,42.6,0,0,1-4.858-4.636v1.195c-11.865-12.106-11.447-26.773-6.589-40.152l1.606-.594c7.627-20.164,25.107-37.077,25.107-37.077l-2.612,1.1c.81-.836,1.273-1.306,1.273-1.306-108.4,46.238-183.817,48.935-192.227,49.092-5.185-1.959-47.9-17.513-89.231-23.312-13-1.887-25.911-2.834-37.508-2.1l-13.021-55.9-.248.15c-.607-4.793-2.86-15.228-11.1-21.7-11-8.593-2.808,30.945-2.808,30.945l.9-.424,4.61,49.784-2.246,1.881a171.123,171.123,0,0,1-40.041,6.9,28.177,28.177,0,0,0,6.086-8.117,5.413,5.413,0,0,0,4.9-1.456,6.652,6.652,0,0,0,1.077-1.508,14.364,14.364,0,0,0,1.437-3.089c2.7-7.261,5.655-14.542,6.53-22.234s-.562-16.037-5.74-21.8-14.62-7.96-20.961-3.507c-1.639,1.149-3.03,2.677-4.832,3.552-5.492,2.658-11.584-1.652-16.7-4.982-5.942-3.872-13.791-6.647-19.949-3.134a12.211,12.211,0,0,0-4.571,4.688,14.914,14.914,0,0,0-2.266,8.979c.353,5.074,3.089,9.795,6.752,13.295a11.526,11.526,0,0,0,4.421,2.886,8.2,8.2,0,0,0,1.306.287,28.15,28.15,0,0,0-4.088,21.2l-2.279,13.791c-2.024.947-3.154,3.017-3.787,5.041-9.527.281-19.276,6.811-19.276,6.811l-37.442,37.442c-9.71,6.589-3.121,18.721-3.121,18.721l21.843,65.528,1.208-.9c4.479,8.162,17.631,30.691,20.158,19.459,3.089-13.608-6.53-25.963-6.53-25.963H326.8l-2.488-3.2-9.142-48.713,11.564-11.486,15.541-2.266.692,100.867C314.537,416.774,318,451.1,318,451.1l24.964,93.613,3.187-.529.771,3.082.281-.1,1.384,6.909H346.1l-3.121,9.364s-15.946-.346-15.6,3.121,9.018,9.364,31.206,3.121l6.243-6.243s3.121-3.121-3.121-9.364h-.444l-1.73-12.119,2.174-.366-18.734-93.632c15.6-12.831,43.685-62.406,43.685-62.406s28.079,49.582,43.685,62.406l-18.721,93.606,2.174.366-1.7,12.12h-.444c-6.243,6.243-3.121,9.364-3.121,9.364l6.243,6.243c22.2,6.243,30.86.346,31.206-3.121s-15.6-3.121-15.6-3.121l-3.121-9.364h-2.494l1.8-8.985.32-.96,3.5.581,24.964-93.613s-.464-54.087-24.7-121.7l49.8,69.831,39.4,62.125a84.46,84.46,0,0,1,7.66-14.366L556,420.327c33.139-19.714,77.379-20.9,104.7-19.27l25.192,2.723,11.845-62.4c6.9-8.887,17.148-16.553,32.042-22.287,30.9-11.884,56.81-37.116,56.6-61.649.451.5.888,1.006,1.306,1.515C788.007,248.107,783.3,237.333,771.728,227.858Zm-342.01,92.561-.033-1.149,1.437,2.259Z" transform="translate(-195.81 -78.728)" fill="url(#linear-gradient)"/>
  <path id="Path_200" data-name="Path 200" d="M347.821,418.2H347.7l-5.544-7.15-8.972,8.972.993,1.489-1.13.274s18.107,34.974,21.124,21.7S347.821,418.2,347.821,418.2Z" transform="translate(-211.424 -189.654)" fill="#fdb797"/>
  <path id="_Clipping_Path_2" data-name="&lt;Clipping Path&gt;" d="M405.419,213.956s33.022,9.906,79.26-4.956,142.006,21.464,142.006,21.464,75.956,0,188.244-47.884c0,0-51.188,49.536-14.862,79.26s3.3,72.652-39.63,89.166S714.2,400.542,717.5,431.918s0,1.652,0,1.652-128.8-23.116-161.824,56.157l-163.47-257.6S382.3,212.311,405.419,213.956Z" transform="translate(-231.221 -110.372)" fill="#5bb9fd"/>
  <g id="Group_1" data-name="Group 1" transform="translate(158.878 72.208)" clip-path="url(#clip-path)">
    <path id="Path_201" data-name="Path 201" d="M141.46,84.18,552.615,379.749,577.383,307.1Z" transform="translate(-207.966 -101.419)" opacity="0.1"/>
    <path id="Path_202" data-name="Path 202" d="M179.39,225.79,407.257,456.962l33.028-24.768Z" transform="translate(-221.128 -150.559)" opacity="0.1"/>
  </g>
  <g id="Group_2" data-name="Group 2" transform="translate(160.145 72.397)" opacity="0.1">
    <path id="Path_203" data-name="Path 203" d="M415.632,237.362s33.022,9.906,79.26-4.956,141.993,21.47,141.993,21.47,61.446,0,155.5-34.844c7.438-19.668,24.481-36.163,24.481-36.163-112.314,47.884-188.244,47.884-188.244,47.884S532.85,194.428,486.619,209.29s-79.26,4.956-79.26,4.956c-23.116-1.652-13.21,18.166-13.21,18.166l6.8,10.716C402.363,239.517,406.314,236.7,415.632,237.362Z" transform="translate(-392.039 -182.87)"/>
    <path id="Path_204" data-name="Path 204" d="M1017.366,301.845a41.555,41.555,0,0,1-4.741-4.525c-.379,9.749,2.984,19.446,12.994,27.641a51.537,51.537,0,0,1,7.3,7.222C1033.24,321.592,1028.649,311.078,1017.366,301.845Z" transform="translate(-607.379 -222.585)"/>
  </g>
  <path id="Path_205" data-name="Path 205" d="M350.491,697.536l-3.043,15.221H335.27l3.049-21.307Z" transform="translate(-116.342 -239.94)" fill="#fdb797"/>
  <path id="Path_206" data-name="Path 206" d="M351.364,702.623l-.855,2.573L338.5,701.767l.855-1.717Z" transform="translate(-117.463 -242.924)" opacity="0.1"/>
  <path id="Path_207" data-name="Path 207" d="M237.41,697.536l3.043,15.221h12.172l-3.043-21.307Z" transform="translate(-82.384 -239.94)" fill="#fdb797"/>
  <path id="Path_208" data-name="Path 208" d="M237.34,702.623l.855,3.428,12.015-4.284V700.05Z" transform="translate(-82.359 -242.924)" opacity="0.1"/>
  <path id="Path_209" data-name="Path 209" d="M535.981,125.286s-.34-15.254-11.055-23.651-2.7,30.162-2.7,30.162Z" transform="translate(-276.071 -81.868)" fill="#fdb797"/>
  <path id="Path_210" data-name="Path 210" d="M389.709,791.42H374.495l-3.043,9.142s-15.554-.34-15.215,3.043,8.789,9.142,30.429,3.043l6.086-6.086S395.8,797.506,389.709,791.42Z" transform="translate(-219.468 -321.646)" fill="#333"/>
  <path id="Path_211" data-name="Path 211" d="M480.039,791.42h15.215l3.043,9.142s15.554-.34,15.215,3.043-8.789,9.142-30.429,3.043L477,800.562S473.953,797.506,480.039,791.42Z" transform="translate(-261.111 -321.646)" fill="#333"/>
  <path id="Path_212" data-name="Path 212" d="M451.723,474.51H366.534c-27.726,73.037-24.343,106.516-24.343,106.516l24.343,91.295,18.284-3.043L366.534,578c15.215-12.511,42.608-60.865,42.608-60.865s27.38,48.328,42.581,60.865L433.44,669.3l18.284,3.043,24.343-91.294S479.469,547.547,451.723,474.51Z" transform="translate(-214.551 -211.675)" fill="#333"/>
  <path id="Path_213" data-name="Path 213" d="M379.54,476.32s48.321,18.284,85.209,0Z" transform="translate(-227.557 -212.303)" opacity="0.1"/>
  <path id="Path_214" data-name="Path 214" d="M348.422,284.239l-24.344,24.343,9.142,48.693-12.172,9.142-21.3-63.908s-6.425-11.832,3.043-18.284L339.313,247.7s15.672-10.5,26.446-5.119-17.546,41.269-17.546,41.269" transform="translate(-199.129 -130.662)" fill="#fe6b39"/>
  <path id="Path_215" data-name="Path 215" d="M374.87,246.951l3.043,109.559s48.321,18.284,85.209,0l-3.043-103.133-.777-3.409.562-1.678,36.567-30.325c10.023-5.518,4.728-17.9,4.728-17.9l-15.28-65.606L472.9,142.413l4.571,49.327-26.041,21.6-.653-.033v.163l-66.755-3.036" transform="translate(-225.936 -93.674)" fill="#fe6b39"/>
  <rect id="Rectangle_160" data-name="Rectangle 160" width="24.343" height="27.386" rx="12.172" transform="translate(182.583 101.71)" fill="#fdb797"/>
  <path id="Path_216" data-name="Path 216" d="M427.59,240.017a27.38,27.38,0,0,0,23.508-2.612,12.217,12.217,0,0,0-11.44-8.025h0a12.211,12.211,0,0,0-12.067,10.637Z" transform="translate(-244.23 -126.612)" opacity="0.1"/>
  <circle id="Ellipse_19" data-name="Ellipse 19" cx="27.386" cy="27.386" r="27.386" transform="translate(164.325 59.109)" fill="#fdb797"/>
  <path id="Path_217" data-name="Path 217" d="M402.734,165.231a14.1,14.1,0,0,1-5.093-.287,11.244,11.244,0,0,1-4.31-2.821c-3.578-3.435-6.243-8.019-6.589-12.968s1.959-10.193,6.249-12.648c6.008-3.422,13.667-.718,19.459,3.056,4.982,3.265,10.931,7.451,16.286,4.858,1.757-.849,3.115-2.344,4.715-3.461,6.184-4.342,15.391-2.2,20.439,3.422s6.465,13.759,5.6,21.268-3.742,14.607-6.38,21.686a10.519,10.519,0,0,1-2.044,3.807c-3.213,3.3-9.227.738-11.342-3.35-3.676-7.111,0-19.44-8.685-23.586C424.119,160.915,410.158,164.748,402.734,165.231Z" transform="translate(-230.044 -93.84)" opacity="0.1"/>
  <path id="Path_218" data-name="Path 218" d="M403.364,164.191a14.1,14.1,0,0,1-5.093-.287,11.245,11.245,0,0,1-4.31-2.821c-3.578-3.435-6.243-8.019-6.589-12.968s1.959-10.193,6.249-12.648c6.008-3.422,13.667-.718,19.459,3.056,4.982,3.265,10.931,7.451,16.286,4.858,1.757-.849,3.115-2.344,4.715-3.461,6.184-4.342,15.391-2.2,20.439,3.422s6.465,13.759,5.6,21.268-3.781,14.607-6.393,21.686a10.519,10.519,0,0,1-2.044,3.807c-3.213,3.3-9.227.738-11.342-3.35-3.676-7.111,0-19.44-8.685-23.586C424.769,159.875,410.782,163.715,403.364,164.191Z" transform="translate(-230.262 -93.479)" fill="#333"/>
  <ellipse id="Ellipse_20" data-name="Ellipse 20" cx="3.043" cy="6.086" rx="3.043" ry="6.086" transform="translate(203.883 80.409)" fill="#fdb797"/>
  <path id="Path_219" data-name="Path 219" d="M228.14,234.71l7.725,3.618-7.725,9.442Z" transform="translate(-79.167 -81.447)" opacity="0.1"/>
  <path id="Path_220" data-name="Path 220" d="M355.466,236.75l-5.146,5.72,3.428,5.146,2-5.72Z" transform="translate(-121.565 -82.155)" opacity="0.1"/>
  <path id="Path_221" data-name="Path 221" d="M425.894,259.858v4.956s-36.143-6.6-37.064-16.514l23.854,1.652Z" transform="translate(-230.78 -133.178)" fill="#5bb9fd"/>
  <path id="Path_222" data-name="Path 222" d="M445.59,259.858v4.956s36.143-6.6,37.064-16.514L458.8,249.952Z" transform="translate(-250.477 -133.178)" fill="#5bb9fd"/>
  <path id="Path_223" data-name="Path 223" d="M637.09,276.36l118.89,28.072L713.046,322.6Z" transform="translate(-221.077 -95.9)" opacity="0.1"/>
  <path id="Path_224" data-name="Path 224" d="M389,243.156s0-10.376,6.922-10.376,13.837,20.759,13.837,20.759Z" transform="translate(-230.839 -127.792)" fill="#5bb9fd"/>
  <circle id="Ellipse_21" data-name="Ellipse 21" cx="4.532" cy="4.532" r="4.532" transform="translate(3.017 187.225)" fill="#f55f44" opacity="0.5"/>
  <circle id="Ellipse_22" data-name="Ellipse 22" cx="4.532" cy="4.532" r="4.532" transform="translate(59.638 293.676)" fill="#f55f44" opacity="0.5"/>
  <circle id="Ellipse_23" data-name="Ellipse 23" cx="4.532" cy="4.532" r="4.532" transform="translate(542.054 8.3)" fill="#f55f44" opacity="0.5"/>
  <path id="Path_225" data-name="Path 225" d="M644.662,93.5a2.775,2.775,0,0,1-1.548-3.35,1.308,1.308,0,0,0,.059-.307h0a1.391,1.391,0,0,0-2.5-.921h0a1.3,1.3,0,0,0-.157.274,2.775,2.775,0,0,1-3.343,1.541,1.306,1.306,0,0,0-.307-.059h0a1.391,1.391,0,0,0-.921,2.5h0a1.307,1.307,0,0,0,.274.157,2.775,2.775,0,0,1,1.528,3.343,1.3,1.3,0,0,0-.059.307h0a1.391,1.391,0,0,0,2.5.921h0a1.308,1.308,0,0,0,.157-.274,2.775,2.775,0,0,1,3.35-1.548,1.306,1.306,0,0,0,.307.059h0a1.391,1.391,0,0,0,.927-2.494h0a1.3,1.3,0,0,0-.268-.15Z" transform="translate(-316.338 -77.68)" fill="#4d8af0" opacity="0.5"/>
  <path id="Path_226" data-name="Path 226" d="M985.718,515.492a2.775,2.775,0,0,1-1.548-3.35,1.307,1.307,0,0,0,.059-.307h0a1.391,1.391,0,0,0-2.5-.921h0a1.3,1.3,0,0,0-.157.274,2.775,2.775,0,0,1-3.35,1.548,1.307,1.307,0,0,0-.307-.059h0a1.391,1.391,0,0,0-.921,2.5h0a1.31,1.31,0,0,0,.274.157,2.775,2.775,0,0,1,1.548,3.35,1.308,1.308,0,0,0-.059.307h0a1.391,1.391,0,0,0,2.5.921h0a1.3,1.3,0,0,0,.157-.274,2.775,2.775,0,0,1,3.35-1.548,1.3,1.3,0,0,0,.307.059h0a1.391,1.391,0,0,0,.921-2.5h0A1.306,1.306,0,0,0,985.718,515.492Z" transform="translate(-434.686 -224.114)" fill="#4d8af0" opacity="0.5"/>
  <circle id="Ellipse_24" data-name="Ellipse 24" cx="4.532" cy="4.532" r="4.532" transform="translate(378.982 415.974)" fill="#47e6b1" opacity="0.5"/>
  <circle id="Ellipse_25" data-name="Ellipse 25" cx="4.532" cy="4.532" r="4.532" transform="translate(3.017 384.272)" fill="#47e6b1" opacity="0.5"/>
  <circle id="Ellipse_26" data-name="Ellipse 26" cx="4.532" cy="4.532" r="4.532" transform="translate(365.394 55.863)" fill="#47e6b1" opacity="0.5"/>
  <g id="Group_3" data-name="Group 3" opacity="0.5">
    <rect id="Rectangle_161" data-name="Rectangle 161" width="2.266" height="12.831" transform="translate(5.283)" fill="#47e6b1"/>
    <rect id="Rectangle_162" data-name="Rectangle 162" width="2.266" height="12.831" transform="translate(12.831 5.283) rotate(90)" fill="#47e6b1"/>
  </g>
  <g id="Group_4" data-name="Group 4" transform="translate(41.524 123.056)" opacity="0.5">
    <rect id="Rectangle_163" data-name="Rectangle 163" width="2.266" height="12.831" transform="translate(5.283)" fill="#47e6b1"/>
    <rect id="Rectangle_164" data-name="Rectangle 164" width="2.266" height="12.831" transform="translate(12.831 5.283) rotate(90)" fill="#47e6b1"/>
  </g>
  <g id="Group_5" data-name="Group 5" transform="translate(456.753 67.944)" opacity="0.5">
    <rect id="Rectangle_165" data-name="Rectangle 165" width="2.266" height="12.831" transform="translate(5.276)" fill="#47e6b1"/>
    <rect id="Rectangle_166" data-name="Rectangle 166" width="2.266" height="12.831" transform="translate(12.831 5.283) rotate(90)" fill="#47e6b1"/>
  </g>
</svg>
