<svg id="Teacher" xmlns="http://www.w3.org/2000/svg" width="871.859" height="597.723" viewBox="0 0 871.859 597.723">
  <rect id="Rectangle_133" data-name="Rectangle 133" width="670.194" height="335.557" rx="7.21" transform="translate(109.281 57.615)" fill="#fff"/>
  <path id="Path_120" data-name="Path 120" d="M203.642,256.857C241.656,273.331,263.5,307.42,263.5,307.42s-39.8,7.355-77.822-9.111-59.858-50.563-59.858-50.563S165.618,240.382,203.642,256.857Z" transform="translate(-125.82 -155.298)" fill="#5bb9fd"/>
  <path id="Path_121" data-name="Path 121" d="M336.42,186.5C348.178,167.193,368.2,158,368.2,158s.919,22.009-10.8,41.26-31.791,28.435-31.791,28.435S324.652,205.7,336.42,186.5Z" transform="translate(-141.935 -148.191)" fill="#5bb9fd"/>
  <path id="Path_122" data-name="Path 122" d="M243.046,206.3c8.412,30.025,31.6,49.791,31.6,49.791s9.552-28.931,1.14-58.966-31.607-49.791-31.607-49.791S234.624,176.261,243.046,206.3Z" transform="translate(-134.996 -147.33)" fill="#46455b"/>
  <path id="Path_123" data-name="Path 123" d="M118.87,482H789.064v13.6a6.628,6.628,0,0,1-6.628,6.628H125.5a6.628,6.628,0,0,1-6.628-6.628Z" transform="translate(-9.589 -109.054)" opacity="0.1"/>
  <rect id="Rectangle_134" data-name="Rectangle 134" width="49.644" height="24.822" rx="2.5" transform="translate(174.554 348.124)" fill="#5bb9fd"/>
  <rect id="Rectangle_135" data-name="Rectangle 135" width="34.015" height="3.677" rx="1.839" transform="translate(237.988 369.269)" fill="#5bb9fd"/>
  <path id="Path_124" data-name="Path 124" d="M347.058,280c24.261,4.477,49.01,0,73.17-3.034l73.427-9.193c2.969-.377,7.29-2.151,9.037,1.48.984,2.032.322,6.435.4,8.77.193,6.435.175,12.871,0,19.306-.331,12.3-1.232,24.574-2.381,36.819-2.234,23.967-5.4,47.805-6.978,71.864-.809,12.246-1.214,24.528-.855,36.773.083,2.923.2,5.847.377,8.761.193,3.264,1.655,8.109-1.9,10.287-2.032,1.25-6.031,1.186-8.357,1.554-3.677.579-7.355,1.039-11.106,1.416-24.721,2.473-49.764,1.443-74.576,1.3l-74.926-.386-18.276-.1c-1.655,0-7.621.993-8.642-.974-.432-.837.717-4.753.919-5.8q.423-2.593.919-5.176c2.133-12.089,4.652-24.1,7.189-36.111,5.452-25.741,11.032-51.611,13.275-77.9,1.112-13.192.377-26.5,1.738-39.669.634-6.114,1.388-19.756,9.524-20.3,6.895-.46,13.992,0,20.906,0a1.379,1.379,0,0,0,0-2.758c-6.527,0-13.064-.175-19.591-.046-4.339.083-7.355,1.112-9.423,5.1-5.286,10.241-4.744,23.9-4.909,35.082-.4,26.762-4.5,52.954-9.855,79.127-2.694,13.174-5.6,26.3-8.274,39.485-1.259,6.3-2.464,12.613-3.567,18.947-.515,3.015-3.117,9.662-.827,12.429s9.331,1.278,12.485,1.3l21.935.129,42.032.239c27.157.156,54.406.919,81.554.12,12.963-.386,26.661-.919,39.283-4.017,3.76-.919,5.571-2.648,5.718-6.656.221-6.215-.791-12.622-.919-18.865-.919-53.413,11.63-106.082,10.342-159.514-.083-3.631,1.287-12.788-2.684-14.985-1.784-.993-4.1-.45-5.976-.23-3.585.414-7.162.919-10.747,1.342l-46.564,5.81c-14.884,1.839-29.759,3.824-44.67,5.516-15.785,1.839-31.726,2.933-47.456,0-1.738-.322-2.482,2.335-.735,2.657Z" transform="translate(-139.27 -156.758)" fill="#5bb9fd"/>
  <path id="Path_125" data-name="Path 125" d="M319.884,315.7l183.7-9.009c1.774-.092,1.784-2.85,0-2.758l-183.7,9.009C318.118,313.022,318.109,315.78,319.884,315.7Z" transform="translate(-141.367 -159.962)" fill="#5bb9fd"/>
  <path id="Path_126" data-name="Path 126" d="M381.45,291.22a4.6,4.6,0,0,0,1.627,7.419c2.473,1.131,5.378.184,7.833-.432,3.677-.919,7.355-1.738,11.133-2.409a151.829,151.829,0,0,1,24.9-2.317c3.806-.046,7.584.129,11.391.294,2.758.11,5.727.331,8.063-1.379,2.666-1.949,3.53-5.755.919-8.127-3.677-3.356-11.6-1.407-15.849-1.057a355.419,355.419,0,0,0-45.838,6.84c-1.728.368-1,3.034.735,2.657q14.958-3.227,30.145-5.185,7.465-.919,14.958-1.554c2.353-.193,4.707-.368,7.06-.506.919-.055,1.894-.156,2.832-.129,2.914.064,3.254-.46,1.508,3.061-1.554,3.117-1.057,2.758-3.751,2.657-1.14,0-2.28-.129-3.42-.184q-3.5-.147-7.005-.156-7.456,0-14.875.717c-4.192.4-8.375.974-12.521,1.71-2.593.46-5.167.993-7.732,1.581-1.131.267-2.271.542-3.4.827-.542.147-1.094.276-1.636.414q-3.015,1.048-5.139-2.758c1.232-1.278-.708-3.236-1.949-1.949Z" transform="translate(-146.34 -158.22)" fill="#5bb9fd"/>
  <path id="Path_127" data-name="Path 127" d="M413.934,334.494c-13.3-.515-27.672,3.08-36.433,13.79-6.858,8.375-10.765,22.744-3.5,32.177,7.805,10.113,24.923,8.329,35.247,4.017,10.922-4.6,22.873-14.075,26.155-25.934,4.091-14.81-9.193-26.008-23.029-26.173a1.38,1.38,0,0,0,0,2.758c7.888.092,15.629,3.475,19.306,10.821,3.852,7.741.533,15.868-4.6,22.064-8.219,9.864-21.071,17.3-34.162,17.09-7.86-.12-16.548-2.813-18.984-11.106-2-6.72-.478-14.066,3.015-20.023,7.557-12.871,22.937-17.228,37.04-16.677,1.774.064,1.774-2.694,0-2.758Z" transform="translate(-145.526 -162.256)" fill="#5bb9fd"/>
  <path id="Path_128" data-name="Path 128" d="M402.986,356.092a3.585,3.585,0,0,0-4.817,3.677c.276,3.585,4.229,4.6,7.2,4.385,2.565-.221,5.562-1.168,4.661-4.376a4.119,4.119,0,0,0-2.243-2.593,5.194,5.194,0,0,0-2.593-.322c-.34,0-3.457,1.14-2.133-.23l-2.17-.285a2.262,2.262,0,0,1,.662,1.839,1.388,1.388,0,0,0,2.068,1.186,1.839,1.839,0,0,1,2.491,2.151,1.388,1.388,0,0,0,2.519,1.066c.919-1.655,2.032-4.946.653-6.674-.919-1.168-2.694-.818-3.8-.138a13.306,13.306,0,0,0-1.894,1.627c-1.112.984-1.839,1.443-1.425-.441.69-3.429,3.962-6.16,6.95-7.529l-2.023-1.554a29.069,29.069,0,0,1-5.562,10.894l2.353.974a6.141,6.141,0,0,1,3.751-5.985h-1.351l.717,1.177c-.267,1.738,2.39,2.482,2.657.726.349-2.271-1.085-5.222-3.742-4.109-3.172,1.324-4.817,4.955-4.753,8.191,0,1.1,1.563,1.958,2.363.984a32.417,32.417,0,0,0,6.261-12.126,1.4,1.4,0,0,0-2.032-1.554,15.417,15.417,0,0,0-6.693,5.829c-1.122,1.839-2.528,4.707-1.388,6.821a2.923,2.923,0,0,0,4,1.131A10.759,10.759,0,0,0,405.983,359c.34-.3.717-.827,1.168-.919.4-.276.386-.12-.064.487a5.011,5.011,0,0,1-.8,2.684l2.519,1.057a4.6,4.6,0,0,0-6.536-5.268l2.078,1.2a5.011,5.011,0,0,0-1.039-3.245,1.4,1.4,0,0,0-2.16-.285c-1.4,1.462-1.664,3.99.092,5.341,1.315,1,1.958,0,3.4-.23,4.9-.634,2.041,1.572.313,1.646a6.518,6.518,0,0,1-2.308-.165q-2.878-.975-.359-2.51c1.646.671,2.353-1.995.735-2.657Z" transform="translate(-147.788 -163.427)" fill="#5bb9fd"/>
  <path id="Path_129" data-name="Path 129" d="M399.8,362.231c1.131,3.677-3.539,4.891-5.755,6.16a12.816,12.816,0,0,0-3.981,3.484c-2.317,3.107-3.181,7.06-3.944,10.784-.349,1.738,2.308,2.473,2.666.735a31.257,31.257,0,0,1,2.326-7.934c1.655-3.291,4.027-4.394,7.116-6.086s5.323-4.312,4.229-7.879c-.515-1.692-3.181-.965-2.657.735Z" transform="translate(-146.815 -164.528)" fill="#5bb9fd"/>
  <path id="Path_130" data-name="Path 130" d="M404.71,360.37a2.666,2.666,0,0,0-2.3,2.758c0,1.094.726,1.793,1.223,2.666a21.052,21.052,0,0,1,2.666,5.8c.441,1.977.873,5.516-.156,7.355-1.9,3.411-5.341,2.758-8.274,2.758-2.758,0-4.891.919-4.8-2.923.055-2.16,1.563-4.348,2.758-6.049l-2.519-.331a48.049,48.049,0,0,1,.837,8.513c0,1.278,1.958,1.986,2.565.689a53.257,53.257,0,0,0,3.5-9.69l-2.712-.368.478,6.987a1.388,1.388,0,0,0,2.565.7,3.126,3.126,0,0,0,.689-1.241c.092-.432-.754-3.346-1.094-2.308l2.7.368.193-6.638-2.758.368a13.735,13.735,0,0,1,.515,5.792c-.175,1.535,2.409,1.885,2.758.368l1.728-8.918-2.519.322a6.1,6.1,0,0,1,.469,3.971c-.2,1.765,2.556,1.747,2.758,0a9.69,9.69,0,0,0-.846-5.36,1.388,1.388,0,0,0-2.519.331l-1.738,8.918,2.712.368a15.04,15.04,0,0,0-.616-6.518,1.379,1.379,0,0,0-2.7.359l-.193,6.638a1.385,1.385,0,0,0,2.712.368l.147-.45a1.4,1.4,0,0,0-.349-1.342c-2.859-3.107-3.438,1.839-4.431,3.208l2.574.7-.478-6.987c-.1-1.489-2.308-1.949-2.712-.368a49.425,49.425,0,0,1-3.218,9.037l2.574.7a51.981,51.981,0,0,0-.919-9.249c-.239-1.269-1.9-1.214-2.519-.331-1.839,2.648-5.02,8.43-2.565,11.6,2.142,2.758,8.881,1.692,11.758,1.517,4.542-.257,6.187-3.135,6.684-7.419A18.165,18.165,0,0,0,409,370.9c-.248-1.085-2.758-7.961-3.512-7.824,1.747-.322,1-2.988-.735-2.666Z" transform="translate(-147.131 -164.515)" fill="#5bb9fd"/>
  <path id="Path_131" data-name="Path 131" d="M399.479,366.777l-7.529,9.938,2.381,1.388,5.516-7.98-2.519-1.066-2.749,10.49a1.388,1.388,0,0,0,2.519,1.066,48.453,48.453,0,0,1,4.2-5.911l-2.3-1.342a15.012,15.012,0,0,1-3.466,6.371l2.307,1.342a12.319,12.319,0,0,1,1-3.677c.708-1.59-1.535-3-2.381-1.4a32.365,32.365,0,0,1-2.657,4.174l2.519.331.561-2.62-2.519-.331.4,2.3a1.388,1.388,0,0,0,2.307.607,27.452,27.452,0,0,0,5.516-8.32h-2.372a12.383,12.383,0,0,1,1.3,3.677c.331,1.655,2.528,1.039,2.7-.368a74.745,74.745,0,0,0,.607-9.285h-2.758v5.783c0,1.5,2.455,1.94,2.712.368a10.537,10.537,0,0,1,1.352-3.953h-2.418a6.131,6.131,0,0,1,.919,3.126,1.379,1.379,0,1,0,2.758,0l.349-1.839h-2.657c.267,1.627,1.278,10.793-2.317,9.717-.607-.147-.781-.11-.524.1l.818-1.747,1.921-4.073-2.574-.7c.165,1.894.34,4.6-.8,6.215-.919,1.315-3.751,1.839-5.194,1.066a9.193,9.193,0,0,1-2.4-2.519l-1.885,1.839c1.526,1.112,4,3.843,5.966,4,1.5.12,2.758-1.122,3.742-2.114a16.024,16.024,0,0,0,4.5-11.8,1.379,1.379,0,1,0-2.758,0v3.144a1.379,1.379,0,0,0,2.758,0v-7.713a1.379,1.379,0,1,0-2.758,0,33.1,33.1,0,0,1-.478,5.516l2.712.368a63.487,63.487,0,0,1-.3-6.61,1.379,1.379,0,0,0-2.7-.368c-.414,1.756-.919,3.484-1.407,5.2l2.519-.331-.193-.735c-.129-1.756-2.887-1.765-2.758,0a5.047,5.047,0,0,0,.57,2.133,1.393,1.393,0,0,0,2.519-.331c.524-1.728.993-3.457,1.407-5.2l-2.712-.368a63.505,63.505,0,0,0,.3,6.61c.138,1.416,2.418,2.023,2.7.368a37.986,37.986,0,0,0,.579-6.288h-2.758v7.713h2.758V369.6h-2.758a13.257,13.257,0,0,1-3.356,9.451,11.293,11.293,0,0,1-1.158,1.14c-.653.625-1.25.533-1.774-.285-1.305-.542-2.657-1.94-3.8-2.758s-2.7.8-1.894,1.885c2.114,2.813,5.268,5.948,9.193,4.6,4.128-1.462,4.689-7.051,4.376-10.729-.1-1.223-1.931-2.05-2.565-.69-.919,1.94-1.839,3.87-2.758,5.819a5.142,5.142,0,0,0-.827,2.427c.3,2.068,2.813,1.728,4.358,1.609,5.985-.45,5.038-8.936,4.348-13.2-.23-1.416-2.289-1.2-2.657,0a8.12,8.12,0,0,0-.451,2.611h2.758a10.932,10.932,0,0,0-1.3-4.514,1.388,1.388,0,0,0-2.381,0,13.4,13.4,0,0,0-1.636,4.6l2.758.368v-5.783a1.379,1.379,0,1,0-2.758,0,74.746,74.746,0,0,1-.607,9.285l2.712-.368a15.783,15.783,0,0,0-1.572-4.3,1.388,1.388,0,0,0-2.381,0,25.153,25.153,0,0,1-5.084,7.759l2.307.607-.4-2.3c-.211-1.223-1.94-1.259-2.519-.331a6.049,6.049,0,0,0-.837,4.744c.23,1.305,1.885,1.168,2.519.331a32.264,32.264,0,0,0,2.657-4.165l-2.381-1.4a15.683,15.683,0,0,0-1.287,4.33c-.165,1.214,1.278,2.482,2.308,1.342a18.386,18.386,0,0,0,4.174-7.594c.34-1.25-1.388-2.436-2.308-1.342a52.67,52.67,0,0,0-4.6,6.435l2.519,1.066,2.8-10.453a1.388,1.388,0,0,0-2.519-1.066l-5.516,7.989c-1.03,1.48,1.333,2.758,2.381,1.388l7.5-9.929c1.066-1.416-1.324-2.758-2.381-1.4Z" transform="translate(-147.242 -164.726)" fill="#5bb9fd"/>
  <path id="Path_132" data-name="Path 132" d="M527.587,394.687c11.032-6.748,19.8-16.815,29.547-25.236,10.572-9.129,21.669-17.633,33.1-25.686,22.193-15.629,45.5-29.612,68.785-43.558a1.379,1.379,0,0,0-1.388-2.381c-23.287,13.946-46.6,27.9-68.794,43.558-10.471,7.355-20.694,15.151-30.494,23.425-10.664,9.009-20.161,20.225-32.177,27.5-1.517.919-.129,3.31,1.388,2.381Z" transform="translate(-158.061 -159.457)" fill="#5bb9fd"/>
  <path id="Path_133" data-name="Path 133" d="M706.22,253.849c-11.951,1.214-24.822,4.257-32.177,14.709-6.353,8.991-6.215,24.675-.248,33.905,6.776,10.49,20.621,10.867,31.377,7.474s21.889-9.34,21.788-22.193c-.055-6.895-2.547-14.075-5.3-20.326-2.372-5.4-6.573-10.113-12.935-9.515-1.756.165-1.774,2.923,0,2.758,8.522-.791,11.262,9.331,13.284,15.721,1.839,5.966,3.539,13.027.653,18.957s-9.846,8.954-15.794,11.124c-6.435,2.335-13.505,3.76-20.225,1.839-13.312-3.723-16.989-20.593-13.156-32.563,4.413-13.79,20.042-17.844,32.774-19.131,1.747-.175,1.765-2.933,0-2.758Z" transform="translate(-169.661 -155.922)" fill="#5bb9fd"/>
  <path id="Path_134" data-name="Path 134" d="M726.22,369.849c-11.951,1.214-24.822,4.257-32.177,14.709-6.353,8.991-6.215,24.675-.248,33.905,6.775,10.49,20.621,10.867,31.377,7.474s21.889-9.34,21.788-22.193c-.055-6.9-2.547-14.075-5.3-20.326-2.372-5.4-6.573-10.113-12.935-9.515-1.756.165-1.774,2.923,0,2.758,8.522-.791,11.262,9.331,13.284,15.721,1.839,5.966,3.539,13.027.653,18.957s-9.846,8.954-15.794,11.124c-6.435,2.335-13.505,3.76-20.225,1.839-13.312-3.723-16.989-20.593-13.156-32.563,4.413-13.79,20.041-17.844,32.774-19.131,1.747-.175,1.765-2.933,0-2.758Z" transform="translate(-171.274 -165.279)" fill="#5bb9fd"/>
  <path id="Path_135" data-name="Path 135" d="M689.821,278.934l8.706,9.929a1.388,1.388,0,0,0,2.3-.616c1.839-4.836,1.489-9.846,1.921-14.93a49.156,49.156,0,0,1,3.907-15.233A51.418,51.418,0,0,1,727.228,234.5c1.517-.919.129-3.31-1.388-2.381a53.983,53.983,0,0,0-20.8,22.855,52.832,52.832,0,0,0-4.6,14.59c-.919,5.967-.083,12.218-2.289,17.945l2.307-.616-8.66-9.91c-1.177-1.333-3.117.625-1.949,1.949Z" transform="translate(-171.289 -154.153)" fill="#5bb9fd"/>
  <path id="Path_136" data-name="Path 136" d="M532.483,414.526q71.129-2.17,142.294-.919a1.38,1.38,0,0,0,0-2.758q-71.147-1.269-142.294.919C530.709,411.824,530.7,414.582,532.483,414.526Z" transform="translate(-158.516 -168.55)" fill="#5bb9fd"/>
  <path id="Path_137" data-name="Path 137" d="M698.083,385.068a284.921,284.921,0,0,1,46.583,23.406c1.508.919,2.9-1.443,1.388-2.381a287.962,287.962,0,0,0-47.2-23.682c-1.646-.653-2.363,2.013-.726,2.657Z" transform="translate(-171.911 -166.285)" fill="#5bb9fd"/>
  <path id="Path_138" data-name="Path 138" d="M727.807,371.68A112.618,112.618,0,0,0,700.77,440.2c-.074,1.774,2.684,1.774,2.758,0a109.53,109.53,0,0,1,26.229-66.569c1.149-1.342-.791-3.3-1.949-1.949Z" transform="translate(-172.199 -165.391)" fill="#5bb9fd"/>
  <path id="Path_139" data-name="Path 139" d="M330.11,403.612l102.754-1.342,11.813-.156c2.124,0,4.247-.074,6.371-.083,2.988,0,5,2.482,4.946,5.516-.138,6.435-4.183,6.206-9.478,6.435l-12.77.579-52,2.289c-9.313.414-18.635.919-27.948,1.241-8.4.257-24.381-2.482-20.648-14.709.515-1.7-2.142-2.427-2.666-.735-1.839,6.012,1.416,12.117,6.656,15.27,7.437,4.468,17.238,2.951,25.447,2.583l63.839-2.9,15.5-.69c3.972-.184,9.5.625,13.146-1.223,4.284-2.16,5.038-10.738,2.335-14.351-1.388-1.839-3.337-2-5.516-2.087-5.718-.221-11.538.156-17.265.23l-31.827.423-72.728.919a1.38,1.38,0,0,0,0,2.758Z" transform="translate(-142.189 -167.646)" fill="#5bb9fd"/>
  <g id="Michel" transform="translate(590.159 136.329)">
    <path id="Path_140" data-name="Path 140" d="M780.677,769.791c-2.317,1.453-4.964,2.271-7.355,3.549s-4.716,3.2-5.4,5.847a3.677,3.677,0,0,0,.12,2.5,4.854,4.854,0,0,0,2.574,2.041,39.062,39.062,0,0,0,30.9.349,40.709,40.709,0,0,1,5.332-2.114,34.652,34.652,0,0,1,6.831-.7,52.509,52.509,0,0,0,7.18-.919,6.317,6.317,0,0,0,3.254-1.351,6.04,6.04,0,0,0,1.462-3.512A28.913,28.913,0,0,0,820.98,755a6.921,6.921,0,0,0-2-2.124,7.734,7.734,0,0,0-3.19-.855c-4.6-.561-9.414-1.59-14.057-1.7-3.328-.074-5,1.508-7.355,3.8C789.512,758.98,786.671,766.05,780.677,769.791Z" transform="translate(-767.762 -332.3)" fill="#323444"/>
    <path id="Path_141" data-name="Path 141" d="M855.453,769.072c0,4.5.542,9.276,3.273,12.871a17,17,0,0,0,4.468,3.907c5.773,3.677,13.422,5.029,19.508,1.912a5.791,5.791,0,0,0,2.427-2.041c.919-1.6.432-3.595-.083-5.36l-8.807-30.522c-5.691.873-14.057,1.489-19.113,4.376C853.458,756.3,855.453,765.046,855.453,769.072Z" transform="translate(-774.792 -332.261)" fill="#323444"/>
    <path id="Path_142" data-name="Path 142" d="M775.795,565.6c-.533,1.682-2.464,2.464-3.521,3.88-1.241,1.664-1.112,3.971-.662,5.994a15.849,15.849,0,0,0,4.036,7.952,9.533,9.533,0,0,0,8.274,2.813,6.894,6.894,0,0,0,5.617-6.187,11.712,11.712,0,0,0-.864-3.981l-6.27-18.129a.686.686,0,0,0-1.131-.5c-1.48.7-4.45,1.434-5.314,2.969S776.42,563.938,775.795,565.6Z" transform="translate(-768.047 -316.73)" fill="#fbb3b2"/>
    <path id="Path_143" data-name="Path 143" d="M773,564.022c2.289-.359,4.293-1.7,6.435-2.583s4.827-1.223,6.628.248c.515.423,1.011,1,1.682.993a65.813,65.813,0,0,0-4.119-13.091,1.021,1.021,0,0,0-.359-.506,1.039,1.039,0,0,0-.781,0L776.3,550.7c-2.289.6-2.556.414-2.381,2.666C773.965,554.37,774.48,564.022,773,564.022Z" transform="translate(-768.184 -316.061)" fill="#323444"/>
    <path id="Path_144" data-name="Path 144" d="M771.936,422.908c-.919,1.416-.919,3.181-.919,4.845,0,8.136.083,16.318,1.287,24.372.285,1.931.644,3.861.827,5.81a67.011,67.011,0,0,1,.129,8.154l-.919,35.394c-.11,4.33-.331,8.982-3.006,12.383a5.921,5.921,0,0,0-1.076,3.926c.7,8.881,2.17,17.688,3.631,26.468a16.355,16.355,0,0,1,14.838.708,163.329,163.329,0,0,0,7.621-45.047c.211-7.529-.11-15.1,1.048-22.542,1.94-12.521,1.149-25.364-.276-37.959-.451-3.99-1.407-8.1-3.962-11.188a16.962,16.962,0,0,0-9.193-5.3C778.564,422.044,775.521,422.963,771.936,422.908Z" transform="translate(-767.8 -305.86)" fill="#5b5583"/>
    <path id="Path_145" data-name="Path 145" d="M771.936,422.908c-.919,1.416-.919,3.181-.919,4.845,0,8.136.083,16.318,1.287,24.372.285,1.931.644,3.861.827,5.81a67.011,67.011,0,0,1,.129,8.154l-.919,35.394c-.11,4.33-.331,8.982-3.006,12.383a5.921,5.921,0,0,0-1.076,3.926c.7,8.881,2.17,17.688,3.631,26.468a16.355,16.355,0,0,1,14.838.708,163.329,163.329,0,0,0,7.621-45.047c.211-7.529-.11-15.1,1.048-22.542,1.94-12.521,1.149-25.364-.276-37.959-.451-3.99-1.407-8.1-3.962-11.188a16.962,16.962,0,0,0-9.193-5.3C778.564,422.044,775.521,422.963,771.936,422.908Z" transform="translate(-767.8 -305.86)" opacity="0.1"/>
    <path id="Path_146" data-name="Path 146" d="M784.216,533.5a162.364,162.364,0,0,0,9.671,93.993,25.493,25.493,0,0,1,2.243,6.95c.506,4.5-1.572,8.835-2.758,13.192-2.758,9.91-1.168,20.464.6,30.6q1.1,6.344,2.271,12.678c.763,4.119,1.5,8.6-.414,12.328,1.646,6.858,2.62,13.652,4.266,20.51a3.9,3.9,0,0,1,.156,1.682,4.955,4.955,0,0,1-1.682,2.252A10.058,10.058,0,0,0,796,737.32c4.2-3.015,10.058-1.958,14.856,0s9.524,4.6,14.709,4.6c-.754-6.086-1.48-12.475.763-18.184,1.305-3.31,3.6-6.435,3.539-9.975-.064-3.172-2-6-2.473-9.138a23.131,23.131,0,0,1,.221-5.847c1.232-11.253-.165-22.616-1.563-33.85a20.225,20.225,0,0,0-1.544-6.435c-.653-1.324-1.627-2.593-1.609-4.073,0-1.719,1.388-3.117,1.9-4.753.919-3.015-.772-7.116,1.774-8.982,6.711-4.928,4.137-16.7,3.99-25.015q-.175-10.765-.919-21.512a91.631,91.631,0,0,1,5.075,37.086c-.294,4.119-.836,8.449.772,12.255,1.232,2.924,3.677,5.332,4.339,8.43.414,1.912.12,3.889.211,5.838s.754,4.073,2.436,5.056c.129,8.862.919,18.341,1.057,27.2a67.106,67.106,0,0,0,1.1,13.514,17.222,17.222,0,0,1,.68,4.358,18.211,18.211,0,0,1-1.453,5.36,30.734,30.734,0,0,0,4.6,28.361c2.17-3.852,6.693-5.893,11.106-6.215s8.77.791,13.045,1.912a25.548,25.548,0,0,1,3.052-15.537,12.714,12.714,0,0,0,1.609-3.457c.5-2.335-.662-4.661-1.287-6.969-1.02-3.677-.662-7.64-.423-11.482a181.694,181.694,0,0,0-1.7-38.538,32.651,32.651,0,0,0-1.756-7.355c-.331-.846-.735-1.655-1.011-2.51a19.784,19.784,0,0,1-.735-4.707l-1.057-14.709c-.745-10.306,2.638-20.483,5-30.54,1.057-4.5,2.206-9,2.914-13.579.965-6.233,1.122-12.6,2.537-18.754,1.269-5.516,3.558-10.894,4.036-16.548.735-8.761-2.905-17.228-6.435-25.263-1.471-3.31-7.033-2.979-10.609-3.567-25.364-4.165-52.08-4.192-76,5.194a18.912,18.912,0,0,0-6.537,4.514Z" transform="translate(-768.847 -313.812)" fill="#3c354c"/>
    <path id="Path_147" data-name="Path 147" d="M804.042,356.435l2.813,10.94a29.236,29.236,0,0,1,1.259,7.732,5.71,5.71,0,0,1-.616,2.758,6.574,6.574,0,0,1-1.747,1.784c-1.921,1.462-3.254,4.872-5.452,5.884,1.131,1.967,2.694.69,4.735,1.673,3.595,1.747,6.886,4.257,10.784,5.121,3.677.809,7.539.046,11.188-.919,5.176-1.407,10.324-3.346,14.489-6.739s6.536-6.389,6.518-11.749c-4.6.542-8.688-4.1-10.719-8.274a22.477,22.477,0,0,1-1.544-4.955l-2.464-10.839c-2.684.588-4.872,2.51-7.437,3.512s-5.6,1.094-8.449,1.223a91.012,91.012,0,0,0-15.04,1.949c-.68.138-1.535.57-1.37,1.232" transform="translate(-770.387 -299.915)" fill="#fbb3b2"/>
    <path id="Path_148" data-name="Path 148" d="M804.042,356.435l2.813,10.94a29.236,29.236,0,0,1,1.259,7.732,5.71,5.71,0,0,1-.616,2.758,6.574,6.574,0,0,1-1.747,1.784c-1.921,1.462-3.254,4.872-5.452,5.884,1.131,1.967,2.694.69,4.735,1.673,3.595,1.747,6.886,4.257,10.784,5.121,3.677.809,7.539.046,11.188-.919,5.176-1.407,10.324-3.346,14.489-6.739s6.536-6.389,6.518-11.749c-4.6.542-8.688-4.1-10.719-8.274a22.477,22.477,0,0,1-1.544-4.955l-2.464-10.839c-2.684.588-4.872,2.51-7.437,3.512s-5.6,1.094-8.449,1.223a91.012,91.012,0,0,0-15.04,1.949c-.68.138-1.535.57-1.37,1.232" transform="translate(-770.387 -299.915)" opacity="0.1"/>
    <circle id="Ellipse_14" data-name="Ellipse 14" cx="24.344" cy="24.344" r="24.344" transform="translate(21.391 13.862)" fill="#fbb3b2"/>
    <path id="Path_149" data-name="Path 149" d="M822.32,379.313a22.065,22.065,0,0,1,5.516-7.355c3.429-3.006,8.118-5.443,8.927-9.929l7.428,8.651a4,4,0,0,1,.919,1.416,3.567,3.567,0,0,1-.7,2.859c-1.839,2.933-4.735,5.029-7.474,7.152a227,227,0,0,0-18.01,15.886,1.84,1.84,0,0,1-.965.588,1.738,1.738,0,0,1-1-.285,41.82,41.82,0,0,1-12.843-10.444c-.267-.322-.6-.69-1.03-.662a1.324,1.324,0,0,0-.69.359c-2.473,2.023-5.176,4.44-8.348,4.128,4.109-2.951,6.435-7.879,7.3-12.871a24.321,24.321,0,0,1,1.048-5.029,5.25,5.25,0,0,1,3.586-3.4c-2,3.061-.634,7.4,2.059,9.874a20.3,20.3,0,0,0,9.12,4.422C820.288,385.262,821.207,381.722,822.32,379.313Z" transform="translate(-769.882 -300.978)" fill="#323444"/>
    <path id="Path_150" data-name="Path 150" d="M789.346,535.752c3.466.855,6.748,2.308,10.113,3.383a48.33,48.33,0,0,0,18.984,1.995,10.251,10.251,0,0,0,5.516-1.756c.432-.349.827-.763,1.287-1.085a9,9,0,0,1,2.473-1.02c8.43-2.638,15.491-8.329,22.34-13.9.221-.184.469-.414.451-.708a.92.92,0,0,0-.276-.524L846.63,518c-9.451,1.609-19.131,1-28.72.763a41.707,41.707,0,0,0-5.9.156c-1.894.221-3.76.7-5.626,1.1-7.088,1.544-14.332,2.133-21.512,3.144a3.319,3.319,0,0,0-1.425.441,3.208,3.208,0,0,0-.763.846l-2.519,3.539a11.135,11.135,0,0,0-2.114,4.054c-.588,2.758.644,3.677,2.988,3.319A21.826,21.826,0,0,1,789.346,535.752Z" transform="translate(-768.58 -313.56)" fill="#323444"/>
    <path id="Path_151" data-name="Path 151" d="M816.951,394.55a44.782,44.782,0,0,0-9.478-7.4,13.431,13.431,0,0,0-4.6-1.839,5.737,5.737,0,0,0-4.707,1.158c-.818.726-1.333,1.738-2.124,2.5a10.563,10.563,0,0,1-3.365,1.9,59.683,59.683,0,0,0-11.823,6.739,27.12,27.12,0,0,0-5.36,4.946c-4.165,5.332-4.79,12.586-4.679,19.352.083,4.707,4.6,8.2,7.7,11.721a86.369,86.369,0,0,1,7.888,11.032c1.673,2.648,3.42,5.516,3.208,8.669-.175,2.583-1.682,5.01-1.443,7.585.083.919.377,1.765.46,2.657.166,1.839-.561,3.677-.745,5.516-.248,2.6.6,5.185.644,7.805a24.826,24.826,0,0,1-.68,5.323c-1.765,8.4-3.981,16.851-3.53,25.429l-5.093.919a4.3,4.3,0,0,1-.984,6.867c7.952,2.657,16.548,1.315,24.978,1.305,6.978,0,13.928.919,20.9.791s14.158-1.388,19.9-5.332c1.563-1.066,3-2.317,4.643-3.245a22.9,22.9,0,0,1,7.033-2.3,69.786,69.786,0,0,1,13.79-1.232c2.262,0,4.725.092,6.527-1.269,1.986-1.508,2.491-4.238,2.758-6.711.267-2.611.432-5.231.478-7.851a33.849,33.849,0,0,0-.322-6.1,39.994,39.994,0,0,0-1.076-4.376L874.391,466.9c-1.434-5.038.561-10.563.984-15.785.1-1.232.12-2.666-.827-3.457-.34-.285-.809-.478-.919-.919a1.572,1.572,0,0,1,.221-1.232c1.839-3.677,4.6-6.923,7.116-10.241a209.315,209.315,0,0,0,11.767-18.083,58.185,58.185,0,0,0-15.574-34.824,16.85,16.85,0,0,0-6.518-4.808,19.308,19.308,0,0,0-5.185-.837c-7.208-.487-14.709-.919-20.988-4.542a3.992,3.992,0,0,0-1.5-.634c-1.388-.156-2.4,1.214-3.3,2.3-2.317,2.758-5.727,4.339-8.724,6.371C825.354,384.005,820.987,389.227,816.951,394.55Z" transform="translate(-768.008 -301.744)" fill="#5b5583"/>
    <path id="Path_152" data-name="Path 152" d="M900.964,424.36c1.434,4.542,1.3,9.4,1.765,14.13a55,55,0,0,0,1.5,8.467,13.516,13.516,0,0,0,1.747,4.312c.827,1.214,2.013,2.2,2.537,3.567a8.615,8.615,0,0,1,.377,2.868l.11,6.343a22.809,22.809,0,0,1-1.5,9.874l-3.962,12.052c-2.142,6.527-4.339,13.156-8.2,18.837a5.433,5.433,0,0,1-2.363,2.216,11.479,11.479,0,0,1-2.381.368,6.123,6.123,0,0,0-5.047,5.948,13.966,13.966,0,0,0-3.392-3.466l-8.063-6.435c-2.758-2.243-5.635-4.523-8.982-5.819a24.353,24.353,0,0,0,16.934-20.464,9.193,9.193,0,0,1,.919-4.027c.671-1.085,1.912-1.912,2-3.19.11-1.609-1.71-2.822-1.71-4.431,0-1.066.791-1.949,1.14-2.951a7.409,7.409,0,0,0,0-3.778l-1.112-6.178a4.718,4.718,0,0,0-.552-1.765,11.414,11.414,0,0,0-1.379-1.453c-1.912-2.142-1.066-5.516,0-8.154a77.947,77.947,0,0,1,9.4-16.484,56.353,56.353,0,0,0,3.742-5.351c.974-1.692,1.2-4.036,2.225-5.516C898.041,417.355,899.833,420.784,900.964,424.36Z" transform="translate(-775.615 -305.161)" fill="#5b5583"/>
    <path id="Path_153" data-name="Path 153" d="M864.343,505.306a4.43,4.43,0,0,0-1.048,1.1,9.3,9.3,0,0,1-4.165,2.969c.919.662,1.756,1.315,2.62,1.986a114.812,114.812,0,0,1,17.467,16.7c.579-2.068,4.045-1.921,4.891-3.9a3.816,3.816,0,0,0,.184-1.765,53.844,53.844,0,0,0-1.324-9.193,10.407,10.407,0,0,0-1.839-4.3c-1.287-1.554-3.291-2.3-5.2-2.942C873.03,504.957,867.284,503.532,864.343,505.306Z" transform="translate(-775.132 -312.468)" fill="#323444"/>
    <path id="Path_154" data-name="Path 154" d="M851,512.982c-2.758,2.041-5.176,4.6-8.274,5.994-2.188.993-4.679,1.425-6.592,2.905,1.039,2.289,3.742,3.475,6.251,3.383a14.857,14.857,0,0,0,7-2.565c1.646-1.011,3.576-2.188,5.369-1.48.276,1.4-.919,2.712-.919,4.128s1.177,2.445,2.335,3.19c5.516,3.558,12.613,3.264,19.187,2.85a1.728,1.728,0,0,0,1.057-.313,1.664,1.664,0,0,0,.4-1.214c.083-1.453.12-2.9.129-4.348a6.233,6.233,0,0,0-2.666-6.141,75.031,75.031,0,0,0-11.492-8.136C858.727,508.891,854.627,510.279,851,512.982Z" transform="translate(-773.277 -312.918)" fill="#fbb3b2"/>
    <path id="Path_155" data-name="Path 155" d="M826.224,326.1c-4.082.487-7.051,3.677-6.638,7.143s4.054,5.856,8.136,5.36,7.051-3.677,6.638-7.134S830.306,325.617,826.224,326.1Zm1.388,11.547c-3.457.414-6.536-1.618-6.9-4.542s2.17-5.626,5.617-6.04,6.536,1.618,6.895,4.542-2.17,5.626-5.617,6.04Z" transform="translate(-771.939 -298.075)" fill="#3c354c"/>
    <path id="Path_156" data-name="Path 156" d="M804.584,328.7c-4.082.487-7.051,3.677-6.638,7.134s4.054,5.856,8.136,5.369,7.051-3.677,6.638-7.143S808.666,328.217,804.584,328.7Zm1.388,11.538c-3.457.414-6.536-1.618-6.886-4.532s2.16-5.626,5.617-6.049,6.536,1.618,6.886,4.542-2.17,5.626-5.617,6.04Z" transform="translate(-770.194 -298.285)" fill="#3c354c"/>
    <path id="Path_157" data-name="Path 157" d="M663.248,259.64l8.872,1.894-.873,2.335-8.366-2.455Z" transform="translate(-643.631 -227.446)" fill="#3c354c"/>
    <path id="Path_158" data-name="Path 158" d="M716.352,253.18l-8.182,3.944,1.407,2.059,7.548-4.367Z" transform="translate(-647.284 -226.925)" fill="#3c354c"/>
    <path id="Path_159" data-name="Path 159" d="M687.31,260.995l6.224-.745-.322,1.544-5.341.359Z" transform="translate(-645.602 -227.495)" fill="#3c354c"/>
    <path id="Path_160" data-name="Path 160" d="M798.674,327.034a9.874,9.874,0,0,0,.919-4.017,8.585,8.585,0,0,1,.423-2.445,6.841,6.841,0,0,1,2-2.565,18.541,18.541,0,0,1,11.032-3.852,25.5,25.5,0,0,1,12.76,2.758,9.928,9.928,0,0,1,3.172,2.353c1.287,1.572,1.563,3.6,2.859,5.157a7.511,7.511,0,0,0,7.042,2.206c.45-1.6-.138-3.291.092-4.928a23.839,23.839,0,0,1,1.462-4.082c1.425-4.2-.653-9.074-4.937-11.584-1.5-.919-3.273-1.517-4.394-2.758s-1.388-2.528-2.16-3.769c-2.05-3.282-7.355-4.817-11.391-3.3-1.269.478-2.39,1.2-3.677,1.719-2.39.984-5.112,1.158-7.741,1.489a23.709,23.709,0,0,0-7.5,1.967c-2.271,1.122-4.174,2.923-4.7,5.075-.248.993-.193,2.023-.441,3.006-1.269,4.992-9.46,7.419-9.92,12.512a7.3,7.3,0,0,0,2.087,5.1c.864,1.02,2.933,3.751,4.394,4.146s2.574-.993,3.971-1.471C796.238,329.065,797.571,328.918,798.674,327.034Z" transform="translate(-769.036 -295.621)" fill="#cbceda"/>
  </g>
  <path id="Path_161" data-name="Path 161" d="M912.81,682c0,46.187,28.977,83.568,64.785,83.568" transform="translate(-189.304 -190.46)" fill="#46455b"/>
  <path id="Path_162" data-name="Path 162" d="M983.28,765.5c0-46.711,32.342-84.505,72.306-84.505" transform="translate(-194.988 -190.378)" fill="#5bb9fd"/>
  <path id="Path_163" data-name="Path 163" d="M938.35,686.56c0,43.88,18.479,79.384,41.306,79.384" transform="translate(-191.364 -190.828)" fill="#5bb9fd"/>
  <path id="Path_164" data-name="Path 164" d="M983.28,763.435c0-59.683,37.38-107.985,83.568-107.985" transform="translate(-194.988 -188.318)" fill="#46455b"/>
  <ellipse id="Ellipse_15" data-name="Ellipse 15" cx="16.107" cy="2.721" rx="16.107" ry="2.721" transform="translate(769.381 585.634)" fill="#5bb9fd" opacity="0.1"/>
  <path id="Path_165" data-name="Path 165" d="M968.46,773.114s9.193-.285,11.951-2.252,14.13-4.33,14.82-1.168,13.79,15.73,3.429,15.813-24.1-1.618-26.863-3.3S968.46,773.114,968.46,773.114Z" transform="translate(-193.793 -197.409)" fill="#a8a8a8"/>
  <path id="Path_166" data-name="Path 166" d="M998.853,784.839c-10.37.083-24.1-1.618-26.863-3.3-2.105-1.278-2.942-5.884-3.227-8h-.3s.579,7.41,3.346,9.092,16.493,3.383,26.863,3.3c3,0,4.027-1.094,3.971-2.666C1002.227,784.223,1001.133,784.82,998.853,784.839Z" transform="translate(-193.793 -197.844)" opacity="0.2"/>
  <path id="Path_167" data-name="Path 167" d="M148.31,711.36c0,36.773,23.048,66.486,51.538,66.486" transform="translate(-127.634 -192.828)" fill="#46455b"/>
  <path id="Path_168" data-name="Path 168" d="M204.37,777.781c0-37.159,25.741-67.231,57.523-67.231" transform="translate(-132.156 -192.763)" fill="#5bb9fd"/>
  <path id="Path_169" data-name="Path 169" d="M168.62,715c0,34.935,14.709,63.158,32.866,63.158" transform="translate(-129.273 -193.122)" fill="#5bb9fd"/>
  <path id="Path_170" data-name="Path 170" d="M204.37,776.142c0-47.484,29.74-85.912,66.486-85.912" transform="translate(-132.156 -191.124)" fill="#46455b"/>
  <ellipse id="Ellipse_16" data-name="Ellipse 16" cx="12.816" cy="2.17" rx="12.816" ry="2.17" transform="translate(57.164 593.384)" fill="#5bb9fd" opacity="0.1"/>
  <path id="Path_171" data-name="Path 171" d="M192.58,783.839s7.309-.23,9.506-1.839,11.253-3.448,11.8-.919,10.986,12.512,2.758,12.576-19.177-1.287-21.375-2.62S192.58,783.839,192.58,783.839Z" transform="translate(-131.205 -198.352)" fill="#a8a8a8"/>
  <path id="Path_172" data-name="Path 172" d="M216.758,793.211c-8.274.064-19.177-1.287-21.374-2.629-1.673-1.011-2.335-4.679-2.565-6.362h-.239s.46,5.893,2.657,7.235,13.128,2.684,21.375,2.62c2.381,0,3.208-.864,3.163-2.124C219.443,792.687,218.533,793.156,216.758,793.211Z" transform="translate(-131.205 -198.706)" opacity="0.2"/>
  <circle id="Ellipse_18" data-name="Ellipse 18" cx="8.274" cy="8.274" r="8.274" transform="translate(433.006 25.438)" fill="#5bb9fd"/>
</svg>
